<?xml version="1.0" standalone="no"?>
<!DOCTYPE svg PUBLIC "-//W3C//DTD SVG 20010904//EN"
 "http://www.w3.org/TR/2001/REC-SVG-20010904/DTD/svg10.dtd">
<svg version="1.0" xmlns="http://www.w3.org/2000/svg"
 width="150.000000pt" height="150.000000pt" viewBox="0 0 150.000000 150.000000"
 preserveAspectRatio="xMidYMid meet">
<metadata>
Created by potrace 1.14, written by Peter Selinger 2001-2017
</metadata>
<g transform="translate(0.000000,150.000000) scale(0.100000,-0.100000)"
fill="#000000" stroke="none">
<path d="M717 1369 c-274 -23 -494 -215 -564 -490 -3 -13 -7 -159 -9 -324 -3
-343 0 -361 72 -406 38 -23 42 -23 320 -24 307 -1 373 6 479 53 33 14 62 29
65 33 3 3 11 8 17 10 23 7 129 103 160 144 45 61 81 128 105 203 18 54 22 89
22 182 0 99 -4 126 -28 195 -34 99 -98 197 -173 264 -69 61 -66 59 -128 92
-100 53 -223 78 -338 68z m187 -344 c62 -31 132 -103 143 -145 3 -14 11 -31
17 -39 11 -14 19 -305 10 -354 -9 -45 -46 -54 -220 -52 -141 2 -156 4 -210 29
-95 43 -154 111 -178 204 -39 146 30 296 164 359 63 29 67 30 145 29 57 -1 82
-7 129 -31z"/>
</g>
</svg>
