<?xml version="1.0" encoding="UTF-8" standalone="no"?>
<svg
   data-name="Layer 1"
   width="552"
   height="411.26562"
   viewBox="0 0 552 411.26563"
   version="1.1"
   id="svg136"
   sodipodi:docname="undraw_empty_cart_co35.svg"
   inkscape:version="1.1.2 (0a00cf5339, 2022-02-04)"
   xmlns:inkscape="http://www.inkscape.org/namespaces/inkscape"
   xmlns:sodipodi="http://sodipodi.sourceforge.net/DTD/sodipodi-0.dtd"
   xmlns="http://www.w3.org/2000/svg"
   xmlns:svg="http://www.w3.org/2000/svg"
   xmlns:rdf="http://www.w3.org/1999/02/22-rdf-syntax-ns#"
   xmlns:cc="http://creativecommons.org/ns#"
   xmlns:dc="http://purl.org/dc/elements/1.1/">
  <defs
     id="defs140" />
  <sodipodi:namedview
     id="namedview138"
     pagecolor="#505050"
     bordercolor="#ffffff"
     borderopacity="1"
     inkscape:pageshadow="0"
     inkscape:pageopacity="0"
     inkscape:pagecheckerboard="1"
     showgrid="false"
     fit-margin-top="0"
     fit-margin-left="0"
     fit-margin-right="0"
     fit-margin-bottom="0"
     inkscape:zoom="1.1217006"
     inkscape:cx="184.54122"
     inkscape:cy="276.36608"
     inkscape:window-width="1920"
     inkscape:window-height="1011"
     inkscape:window-x="0"
     inkscape:window-y="32"
     inkscape:window-maximized="1"
     inkscape:current-layer="svg136" />
  <title
     id="title2">empty_cart</title>
  <path
     d="m 41.634,377.65768 c 12.42842,23.049 38.806,32.9435 38.806,32.9435 0,0 6.22712,-27.47543 -6.2013,-50.52448 -12.42842,-23.04905 -38.806,-32.9435 -38.806,-32.9435 0,0 -6.22711,27.47543 6.2013,50.52448 z"
     fill="#2f2e41"
     id="path4"
     style="fill:#803300" />
  <path
     d="m 50.17653,370.0747 c 22.43841,13.49969 31.08016,40.3138 31.08016,40.3138 0,0 -27.73812,4.92679 -50.17653,-8.57291 C 8.64175,388.31589 0,361.50179 0,361.50179 c 0,0 27.73811,-4.92678 50.17653,8.57291 z"
     fill="#6c63ff"
     id="path6"
     style="fill:#ff6600" />
  <polygon
     points="360.356,617.861 145.18,617.861 134.727,596.084 136.263,595.347 146.252,616.157 362.06,616.157 362.06,702.184 125.274,702.184 125.274,700.481 360.356,700.481 "
     fill="#2f2e41"
     id="polygon50"
     transform="translate(0,-335.08028)"
     style="fill:#803300" />
  <circle
     cx="156.78851"
     cy="390.95276"
     r="17.88673"
     fill="#3f3d56"
     id="circle52"
     style="fill:#aa4400" />
  <circle
     cx="333.10052"
     cy="390.95276"
     r="17.88673"
     fill="#3f3d56"
     id="circle54"
     style="fill:#aa4400" />
  <circle
     cx="540.92725"
     cy="11.07274"
     r="11.07274"
     fill="#3f3d56"
     id="circle56"
     style="fill:#aa4400" />
  <path
     d="M 387.38538,254.6729 H 121.23673 L 63.64844,66.436434 h 383.04412 l -0.34852,1.10753 z m -264.8885,-1.7035 H 386.136 L 444.37017,68.139894 H 65.95082 Z"
     fill="#2f2e41"
     id="path58"
     style="fill:#803300" />
  <polygon
     points="418.395,413.998 366.61,579.958 132.842,579.958 82.26,413.015 418.701,413.015 "
     fill="#f2f2f2"
     id="polygon60"
     transform="translate(0,-335.08028)" />
  <polygon
     points="526.448,343.598 462.37,343.598 451.465,384.7 449.818,384.263 461.059,341.894 526.448,341.894 "
     fill="#2f2e41"
     id="polygon62"
     transform="translate(0,-335.08028)"
     style="fill:#803300" />
  <rect
     x="82.2584"
     y="123.50359"
     width="345.29309"
     height="1.7035"
     fill="#2f2e41"
     id="rect64"
     style="fill:#803300" />
  <rect
     x="101.45894"
     y="186.26347"
     width="306.31851"
     height="1.7035"
     fill="#2f2e41"
     id="rect66"
     style="fill:#803300" />
  <rect
     x="254.31377"
     y="67.288162"
     width="1.7035"
     height="186.533"
     fill="#2f2e41"
     id="rect68"
     style="fill:#803300" />
  <rect
     x="-232.28221"
     y="335.97244"
     width="186.92877"
     height="1.7037899"
     transform="rotate(-86.24919)"
     fill="#2f2e41"
     id="rect70"
     style="fill:#803300" />
  <rect
     x="171.62712"
     y="78.672302"
     width="1.7037899"
     height="186.92877"
     transform="rotate(-3.729)"
     fill="#2f2e41"
     id="rect72"
     style="fill:#803300" />
  <metadata
     id="metadata142">
    <rdf:RDF>
      <cc:Work
         rdf:about="">
        <dc:title>empty_cart</dc:title>
      </cc:Work>
    </rdf:RDF>
  </metadata>
</svg>
