<svg width="350" height="350" viewBox="0 0 350 350" fill="none" xmlns="http://www.w3.org/2000/svg">
<path d="M305.298 59.353C281.127 39.053 240.436 35.924 210.525 46.753C188.244 54.838 170.989 72.863 149.625 83.153C134.561 90.384 117.929 93.541 101.871 98.196C84.462 103.243 67.753 109.76 56.315 124.586C43.652 140.994 40.285 162.659 46.095 182.399C52.178 203.056 67.291 220.339 85.554 231.742C103.817 243.145 125.076 249.039 146.454 251.79C175.371 255.5 205.345 253.589 232.75 243.6C262.85 232.603 288.232 211.827 303.59 183.484C317.198 158.361 328.881 122.619 324.786 93.779C322.84 80.073 315.826 68.201 305.298 59.353Z" fill="#019990"/>
<path opacity="0.7" d="M305.298 59.353C281.127 39.053 240.436 35.924 210.525 46.753C188.244 54.838 170.989 72.863 149.625 83.153C134.561 90.384 117.929 93.541 101.871 98.196C84.462 103.243 67.753 109.76 56.315 124.586C43.652 140.994 40.285 162.659 46.095 182.399C52.178 203.056 67.291 220.339 85.554 231.742C103.817 243.145 125.076 249.039 146.454 251.79C175.371 255.5 205.345 253.589 232.75 243.6C262.85 232.603 288.232 211.827 303.59 183.484C317.198 158.361 328.881 122.619 324.786 93.779C322.84 80.073 315.826 68.201 305.298 59.353Z" fill="white"/>
<path d="M172.571 305.242C250.807 305.242 314.23 296.204 314.23 285.054C314.23 273.904 250.807 264.866 172.571 264.866C94.3349 264.866 30.912 273.904 30.912 285.054C30.912 296.204 94.3349 305.242 172.571 305.242Z" fill="#019990"/>
<path opacity="0.5" d="M172.571 305.242C250.807 305.242 314.23 296.204 314.23 285.054C314.23 273.904 250.807 264.866 172.571 264.866C94.3349 264.866 30.912 273.904 30.912 285.054C30.912 296.204 94.3349 305.242 172.571 305.242Z" fill="white"/>
<path d="M318.5 208.6C316.126 209.229 313.987 210.538 312.347 212.366C310.913 213.898 309.665 215.595 308.63 217.42C307.93 218.575 307.349 219.772 306.789 220.983C306.425 221.774 306.145 222.761 305.802 223.664C305.305 224.469 304.808 225.295 304.402 226.065C305.886 220.71 310.702 210.854 310.765 208.054C310.863 205.002 307.965 209.538 306.313 215.754C305.389 219.269 304.688 222.839 304.213 226.443C304.045 226.765 303.898 227.066 303.765 227.353C303.464 227.976 302.953 229.033 302.274 230.419C303.765 225.869 304.304 220.472 303.408 219.8C302.106 218.834 301.637 221.2 301.644 225.582C301.516 228.711 301.001 231.813 300.111 234.815C299.292 236.432 298.375 238.217 297.395 240.1C298.424 236.824 299.019 232.106 299.579 228.571C300.398 223.426 300.048 221.823 298.382 224.294C296.716 226.765 296.982 230.349 297.402 234.731C297.543 237.532 297.035 240.328 295.918 242.9C294.665 245.28 293.335 247.744 291.991 250.166C293.131 247.684 293.853 245.03 294.126 242.312C294.707 236.369 293.944 230.909 292.565 232.456C291.186 234.003 292.005 238.14 291.823 243.173C291.723 246.229 291.379 249.272 290.794 252.273L290.374 253.015C290.927 250.459 291.074 247.832 290.808 245.231C291.081 244.237 290.983 243.6 290.654 243.299C290.605 242.179 290.696 240.499 290.22 239.638C289.016 237.489 287.7 240.38 287.686 241.521C287.687 242.394 287.748 243.267 287.868 244.132C287.399 244.568 286.994 245.067 286.664 245.616C286.482 245.924 286.293 246.26 286.09 246.631C286.09 246.274 286.132 245.889 286.146 245.546C286.209 244.577 286.006 243.608 285.558 242.746C286.281 241.303 286.801 239.767 287.105 238.182C287.246 237.658 287.209 237.101 287 236.6C286.93 236.445 286.831 236.306 286.707 236.19C286.584 236.074 286.438 235.983 286.28 235.923C286.121 235.863 285.952 235.835 285.783 235.841C285.613 235.847 285.446 235.886 285.292 235.956C285.217 235.991 285.145 236.031 285.075 236.075C282.793 237.286 282.184 240.198 281.918 242.536C281.667 244.553 281.26 246.547 280.7 248.5C280.231 250.257 279.818 251.846 279.552 252.952C279.371 251.772 279.123 250.604 278.81 249.452C278.551 248.493 278.306 247.569 278.068 246.652C277.849 243.409 278.483 240.165 279.909 237.244C282.611 231.686 284.564 229.068 282.709 228.977C280.854 228.886 278.117 231.777 277.732 236.355C277.443 239.129 277.384 241.922 277.557 244.706C276.962 242.606 276.374 240.569 275.765 238.525C275.294 236.268 275.41 233.928 276.101 231.728C277.375 227.955 281.183 221.228 279.181 221.781C277.179 222.334 274.771 226.198 274.498 230.314C274.425 232.465 274.661 234.614 275.198 236.698C274.764 235.27 274.297 233.786 273.798 232.246C273.588 231.546 273.364 230.846 273.147 230.146C273.155 230.02 273.136 229.893 273.091 229.775C272.812 227.648 273.196 225.487 274.19 223.587C276.108 220.143 279.671 217.182 277.571 216.391C275.471 215.6 272.3 221.2 272.111 224C272.069 225.066 272.153 226.132 272.363 227.178L272.104 226.527C271.649 224.917 271.208 223.328 270.823 221.921C270.74 219.843 271.158 217.776 272.041 215.894C273.917 211.596 276.297 206.689 273.868 207.935C271.908 208.95 269.794 214.739 270.207 219.632C270.046 218.988 269.892 218.442 269.773 217.994C269.458 215.194 268.856 208.6 269.773 204.694C270.375 202.076 271.362 199.591 271.663 196.896C271.724 196.597 271.702 196.287 271.6 196C270.942 194.376 268.8 197.54 268.478 198.058C267.17 200.142 266.501 202.563 266.553 205.023C266.555 207.119 266.804 209.208 267.295 211.246C267.594 212.548 267.955 213.836 268.38 215.11C268.646 215.929 269.122 216.846 269.486 217.735C269.668 218.666 269.871 219.611 270.088 220.458C267.519 215.488 264.264 204.995 262.444 202.86C260.435 200.571 261.408 205.898 264.418 211.533C266.149 214.752 268.08 217.859 270.2 220.836C270.298 221.186 270.396 221.536 270.494 221.809C270.697 222.467 271.047 223.594 271.495 225.071C269.451 220.752 266.189 216.412 265.076 216.531C263.473 216.713 264.747 218.764 267.736 221.963C269.765 224.336 271.493 226.95 272.881 229.747C273.385 231.497 273.938 233.415 274.505 235.459C273.014 232.365 270.228 228.508 268.205 225.547C265.293 221.228 263.942 220.29 264.411 223.23C264.88 226.17 267.533 228.599 270.83 231.532C272.834 233.494 274.361 235.888 275.296 238.532C275.996 241.122 276.696 243.831 277.396 246.526C276.536 243.93 275.254 241.494 273.602 239.316C269.962 234.563 265.678 231.098 265.727 233.163C265.776 235.228 269.192 237.706 272.51 241.486C274.523 243.782 276.342 246.24 277.949 248.836C278.019 249.102 278.082 249.375 278.145 249.641C276.661 246.918 274.288 244.699 271.985 242.641C271.173 241.899 269.948 240.338 268.905 240.002C266.567 239.26 267.575 242.27 268.345 243.11C270.844 245.84 274.365 247.527 276.675 250.404C277.546 251.485 278.326 252.637 279.006 253.848C279.167 254.793 279.286 255.675 279.384 256.501C278.497 255.661 277.564 254.868 276.584 254.121C273.784 252.224 272.125 249.613 269.948 247.121C269.297 246.379 268.191 245.455 267.148 245.406C265.664 245.343 265.223 246.897 265.664 248.122C267.379 253.169 273.833 253.393 277.62 256.018C278.311 256.46 278.95 256.979 279.524 257.565C279.685 259.123 279.727 260.691 279.65 262.255H270.97V265.874H273.546L275.646 278.754H292.999L295.099 265.874H297.675V262.255H284.662C285.257 261.513 285.894 260.771 286.538 259.924L289.282 260.008C289.282 260.008 298.823 260.421 302.323 258.517C305.823 256.613 302.701 254.807 299.348 255.78C295.995 256.753 289.415 259.7 287.959 259.7L286.727 259.665C287.427 258.776 288.127 257.859 288.743 256.921C291.37 256.261 293.953 255.438 296.478 254.457C299.215 253.372 302.421 252.497 304.752 250.656C305.205 250.358 305.549 249.92 305.732 249.41C305.838 249.085 305.812 248.731 305.659 248.426C305.505 248.12 305.237 247.888 304.913 247.779C304.838 247.754 304.76 247.735 304.682 247.723C302.183 247.023 299.747 248.759 297.997 250.285C296.457 251.589 294.818 252.773 293.097 253.827C291.55 254.779 290.164 255.675 289.226 256.284C289.926 255.255 290.556 254.226 291.095 253.225C291.564 252.343 292.019 251.503 292.446 250.684C294.507 248.176 297.185 246.246 300.216 245.084C305.984 242.858 309.183 242.284 307.916 240.947C306.649 239.61 302.638 239.855 299.236 242.942C297.127 244.771 295.174 246.773 293.398 248.927C294.413 246.967 295.365 245.091 296.31 243.187C297.512 241.213 299.199 239.58 301.21 238.441C304.71 236.565 312.074 234.241 310.247 233.282C308.42 232.323 304.01 233.492 301.014 236.32C299.491 237.844 298.194 239.579 297.164 241.472C297.822 240.121 298.494 238.728 299.201 237.272C299.502 236.628 299.831 235.97 300.167 235.284C300.237 235.179 300.314 235.081 300.377 234.969C301.626 233.225 303.384 231.909 305.41 231.203C309.127 229.992 313.81 230.258 312.788 228.228C311.766 226.198 305.634 228.144 303.583 230.069C302.829 230.825 302.162 231.663 301.595 232.568C301.686 232.358 301.777 232.134 301.861 231.91C302.603 230.426 303.345 228.942 304.087 227.71C305.438 226.129 307.153 224.902 309.085 224.133C313.39 222.278 318.486 220.311 315.854 219.562C313.754 218.96 308.224 221.746 305.2 225.61L305.998 224.126C307.678 221.851 311.738 216.622 315.098 214.375C317.324 212.884 319.739 211.722 321.783 209.958C322.007 209.79 322.189 209.572 322.315 209.321C322.861 207.613 319.158 208.481 318.5 208.6ZM279.664 253.631C280.224 252.777 281.211 251.202 282.303 249.179C282.639 250.101 283.022 251.005 283.451 251.888C282.443 253.988 281.519 255.766 280.987 256.228L280.063 257.04C280 255.934 279.839 254.8 279.678 253.659L279.664 253.631ZM285.964 259.644C285.287 260.544 284.557 261.404 283.78 262.22H280.42C280.371 260.82 280.273 259.147 280.112 257.32L282.177 255.5C282.177 255.5 283.08 254.758 284.277 253.561C284.864 254.715 285.32 255.931 285.635 257.187C285.858 258.007 285.978 258.851 285.992 259.7L285.964 259.644ZM288.764 252.497C288.665 253.885 288.45 255.262 288.12 256.613C287.595 257.418 287.077 258.146 286.587 258.839C286.545 257.593 286.209 255.339 286.174 255.185C285.943 254.176 285.816 253.147 285.796 252.112C286.784 251.095 287.719 250.027 288.596 248.913C288.795 250.106 288.863 251.317 288.799 252.525L288.764 252.497Z" fill="#1E1E1E"/>
<path d="M294 71.932V207.9C294 211.4 291.389 214.2 288.148 214.2H41.874C38.64 214.2 36.015 211.4 36.015 207.9V71.932C36.015 68.432 38.64 65.632 41.874 65.632H288.169C291.41 65.639 294 68.453 294 71.932Z" fill="white" stroke="#1E1E1E" stroke-width="1.06897" stroke-linecap="round" stroke-linejoin="round"/>
<path d="M107.093 89.453H49.693C47.2613 89.453 45.29 91.4243 45.29 93.856V190.645C45.29 193.077 47.2613 195.048 49.693 195.048H107.093C109.525 195.048 111.496 193.077 111.496 190.645V93.856C111.496 91.4243 109.525 89.453 107.093 89.453Z" fill="#019990"/>
<path d="M70.133 112.903C70.133 114.912 69.5373 116.876 68.4212 118.546C67.3052 120.216 65.7189 121.518 63.8629 122.287C62.007 123.056 59.9647 123.257 57.9945 122.865C56.0242 122.473 54.2144 121.506 52.7939 120.085C51.3734 118.665 50.4061 116.855 50.0142 114.885C49.6223 112.914 49.8234 110.872 50.5922 109.016C51.3609 107.16 52.6628 105.574 54.3331 104.458C56.0034 103.342 57.9671 102.746 59.976 102.746C61.3101 102.745 62.6313 103.007 63.864 103.517C65.0967 104.027 66.2168 104.776 67.1601 105.719C68.1035 106.662 68.8516 107.782 69.3617 109.015C69.8718 110.248 70.1339 111.569 70.133 112.903Z" fill="white" stroke="#1E1E1E" stroke-width="1.06897" stroke-linecap="round" stroke-linejoin="round"/>
<path d="M101.563 107.065H80.36V109.074H101.563V107.065Z" fill="#1E1E1E"/>
<path d="M104.153 111.895H80.36V113.904H104.153V111.895Z" fill="#1E1E1E"/>
<path d="M101.563 116.725H80.36V118.734H101.563V116.725Z" fill="#1E1E1E"/>
<path d="M105.518 121.548H80.36V123.557H105.518V121.548Z" fill="#1E1E1E"/>
<path d="M100.401 134.939H56.294C54.2257 134.939 52.549 136.616 52.549 138.684V147.756C52.549 149.824 54.2257 151.501 56.294 151.501H100.401C102.469 151.501 104.146 149.824 104.146 147.756V138.684C104.146 136.616 102.469 134.939 100.401 134.939Z" fill="white" stroke="#1E1E1E" stroke-width="1.06897" stroke-linecap="round" stroke-linejoin="round"/>
<path d="M100.401 157.01H56.294C54.2257 157.01 52.549 158.687 52.549 160.755V169.827C52.549 171.895 54.2257 173.572 56.294 173.572H100.401C102.469 173.572 104.146 171.895 104.146 169.827V160.755C104.146 158.687 102.469 157.01 100.401 157.01Z" fill="white" stroke="#1E1E1E" stroke-width="1.06897" stroke-linecap="round" stroke-linejoin="round"/>
<path d="M215.481 89.152V201.467" stroke="#1E1E1E" stroke-width="1.06897" stroke-linecap="round" stroke-linejoin="round"/>
<path d="M294 71.505V80.605H36.015V71.505C36.015 69.9505 36.6321 68.4595 37.7307 67.3596C38.8292 66.2597 40.3195 65.6409 41.874 65.639H288.169C289.72 65.6446 291.205 66.2655 292.298 67.3654C293.392 68.4653 294.004 69.9542 294 71.505Z" fill="#1E1E1E"/>
<path d="M53.655 75.453C54.9501 75.453 56 74.4031 56 73.108C56 71.8129 54.9501 70.763 53.655 70.763C52.3599 70.763 51.31 71.8129 51.31 73.108C51.31 74.4031 52.3599 75.453 53.655 75.453Z" fill="white"/>
<path d="M66.829 73.108C66.829 73.5718 66.6915 74.0252 66.4338 74.4108C66.1761 74.7965 65.8099 75.097 65.3814 75.2745C64.9529 75.452 64.4814 75.4984 64.0265 75.4079C63.5716 75.3175 63.1538 75.0941 62.8258 74.7662C62.4979 74.4382 62.2745 74.0204 62.1841 73.5655C62.0936 73.1106 62.14 72.6391 62.3175 72.2106C62.495 71.7821 62.7956 71.4159 63.1812 71.1582C63.5668 70.9005 64.0202 70.763 64.484 70.763C65.1059 70.763 65.7024 71.0101 66.1422 71.4498C66.5819 71.8896 66.829 72.4861 66.829 73.108Z" fill="white"/>
<path d="M77.525 73.108C77.525 73.5718 77.3875 74.0252 77.1298 74.4108C76.8721 74.7965 76.5059 75.097 76.0774 75.2745C75.6489 75.452 75.1774 75.4984 74.7225 75.4079C74.2676 75.3175 73.8498 75.0941 73.5219 74.7662C73.1939 74.4382 72.9706 74.0204 72.8801 73.5655C72.7896 73.1106 72.836 72.6391 73.0135 72.2106C73.191 71.7821 73.4916 71.4159 73.8772 71.1582C74.2628 70.9005 74.7162 70.763 75.18 70.763C75.802 70.763 76.3984 71.0101 76.8382 71.4498C77.278 71.8896 77.525 72.4861 77.525 73.108Z" fill="white"/>
<path d="M281.785 99.582H225.463V101.451H281.785V99.582Z" fill="#019990"/>
<path d="M252.665 105.413H225.463V107.282H252.665V105.413Z" fill="#019990"/>
<path d="M269.003 111.244H225.463V113.113H269.003V111.244Z" fill="#019990"/>
<path d="M264.355 116.907H225.463V118.937H264.355V116.907Z" fill="#019990"/>
<path d="M263.137 122.906H225.463V124.775H263.137V122.906Z" fill="#019990"/>
<path d="M249.942 128.737H225.463V130.606H249.942V128.737Z" fill="#019990"/>
<path opacity="0.2" d="M281.785 99.582H225.463V101.451H281.785V99.582Z" fill="white"/>
<path opacity="0.2" d="M252.665 105.413H225.463V107.282H252.665V105.413Z" fill="white"/>
<path opacity="0.2" d="M269.003 111.244H225.463V113.113H269.003V111.244Z" fill="white"/>
<path opacity="0.2" d="M264.355 116.907H225.463V118.937H264.355V116.907Z" fill="white"/>
<path opacity="0.2" d="M263.137 122.906H225.463V124.775H263.137V122.906Z" fill="white"/>
<path opacity="0.2" d="M249.942 128.737H225.463V130.606H249.942V128.737Z" fill="white"/>
<path d="M59.976 118.3C63.1964 118.3 65.807 115.689 65.807 112.469C65.807 109.249 63.1964 106.638 59.976 106.638C56.7556 106.638 54.145 109.249 54.145 112.469C54.145 115.689 56.7556 118.3 59.976 118.3Z" fill="#1E1E1E"/>
<path d="M65.8 121.24C64.0425 122.455 61.9467 123.086 59.8104 123.042C57.6741 122.998 55.6061 122.281 53.9 120.995C54.859 119.07 56.7 116.095 59.038 116.095C61.964 116.053 63.959 117.341 65.8 121.24Z" fill="#1E1E1E"/>
<path d="M277.816 69.867H221.634C220.03 69.867 218.729 71.1676 218.729 72.772V73.444C218.729 75.0484 220.03 76.349 221.634 76.349H277.816C279.42 76.349 280.721 75.0484 280.721 73.444V72.772C280.721 71.1676 279.42 69.867 277.816 69.867Z" fill="white"/>
<path d="M222.404 70.973V75.089" stroke="#1E1E1E" stroke-width="1.06897" stroke-linecap="round" stroke-linejoin="round"/>
<path d="M100.429 179.76H86.373C84.846 179.76 83.608 180.998 83.608 182.525V186.074C83.608 187.601 84.846 188.839 86.373 188.839H100.429C101.956 188.839 103.194 187.601 103.194 186.074V182.525C103.194 180.998 101.956 179.76 100.429 179.76Z" fill="#019990"/>
<path d="M282.471 179.893H230.188V152.495" stroke="#1E1E1E" stroke-width="1.06897" stroke-linecap="round" stroke-linejoin="round"/>
<path d="M232.302 168.595L234.549 173.614L246.344 158.004L248.808 165.536L253.47 162.918L264.243 173.614L272.286 166.194L275.394 169.463L280.756 158.921" stroke="#1E1E1E" stroke-width="1.06897" stroke-linecap="round" stroke-linejoin="round"/>
<path d="M228.963 178.171H225.176V179.886H228.963V178.171Z" fill="#019990"/>
<path d="M228.963 171.899H225.176V173.614H228.963V171.899Z" fill="#019990"/>
<path d="M228.963 165.62H225.176V167.335H228.963V165.62Z" fill="#019990"/>
<path d="M228.963 159.341H225.176V161.056H228.963V159.341Z" fill="#019990"/>
<path d="M228.963 153.069H225.176V154.784H228.963V153.069Z" fill="#019990"/>
<path d="M255.717 181.272V192.087H257.404V181.272H255.717Z" fill="#019990"/>
<path d="M261.723 181.272V192.087H263.41V181.272H261.723Z" fill="#019990"/>
<path d="M267.729 181.279V192.094H269.416V181.279H267.729Z" fill="#019990"/>
<path d="M273.735 181.279V192.094H275.422V181.279H273.735Z" fill="#019990"/>
<path d="M279.741 181.279V192.094H281.428V181.279H279.741Z" fill="#019990"/>
<path d="M249.557 181.279V192.094H251.244V181.279H249.557Z" fill="#019990"/>
<path d="M243.397 181.279V192.094H245.084V181.279H243.397Z" fill="#019990"/>
<path d="M237.23 181.272V192.087H238.917V181.272H237.23Z" fill="#019990"/>
<path d="M231.07 181.279V192.094H232.757V181.279H231.07Z" fill="#019990"/>
<path d="M183.155 94.073C180.359 94.073 177.678 95.1837 175.701 97.1607C173.724 99.1377 172.613 101.819 172.613 104.615C172.613 107.411 173.724 110.092 175.701 112.069C177.678 114.046 180.359 115.157 183.155 115.157C184.539 115.185 185.916 114.94 187.206 114.436C188.495 113.932 189.673 113.179 190.672 112.22C191.671 111.261 192.471 110.115 193.026 108.846C193.582 107.578 193.883 106.213 193.911 104.829C193.939 103.444 193.694 102.068 193.19 100.778C192.686 99.4883 191.933 98.3104 190.974 97.3116C190.015 96.3129 188.868 95.5129 187.6 94.9572C186.332 94.4015 184.966 94.101 183.582 94.073H183.155Z" fill="#1E1E1E"/>
<path d="M189.84 101.234C189.763 100.937 189.608 100.666 189.391 100.448C189.175 100.231 188.905 100.074 188.608 99.995C187.516 99.701 183.148 99.701 183.148 99.701C183.148 99.701 178.78 99.701 177.695 99.995C177.397 100.074 177.126 100.23 176.908 100.447C176.691 100.665 176.535 100.936 176.456 101.234C176.071 103.474 176.071 105.763 176.456 108.003C176.535 108.301 176.691 108.572 176.908 108.79C177.126 109.007 177.397 109.163 177.695 109.242C178.78 109.536 183.148 109.536 183.148 109.536C183.148 109.536 187.516 109.536 188.608 109.242C188.904 109.162 189.173 109.005 189.39 108.787C189.606 108.57 189.761 108.299 189.84 108.003C190.233 105.764 190.233 103.473 189.84 101.234Z" fill="white"/>
<path d="M181.72 106.694V102.543L185.374 104.615L181.72 106.694Z" fill="#1E1E1E"/>
<path d="M141.624 94.101C139.547 94.101 137.517 94.7168 135.791 95.8706C134.064 97.0243 132.718 98.6642 131.923 100.583C131.129 102.501 130.921 104.613 131.326 106.649C131.731 108.686 132.731 110.557 134.199 112.026C135.668 113.494 137.539 114.494 139.576 114.899C141.612 115.304 143.724 115.096 145.642 114.302C147.561 113.507 149.201 112.161 150.354 110.434C151.508 108.708 152.124 106.678 152.124 104.601C152.124 101.816 151.018 99.1455 149.049 97.1764C147.08 95.2072 144.409 94.101 141.624 94.101Z" fill="#1E1E1E"/>
<path d="M139.853 111.363H142.576V104.545H144.473L144.676 102.263H142.576V100.954C142.576 100.415 142.681 100.205 143.206 100.205H144.676V97.832H142.8C140.777 97.832 139.86 98.728 139.86 100.429V102.249H138.46V104.552H139.86L139.853 111.363Z" fill="white"/>
<path d="M141.561 136.836C139.476 136.836 137.438 137.454 135.705 138.612C133.971 139.77 132.62 141.416 131.822 143.342C131.024 145.268 130.815 147.387 131.221 149.432C131.627 151.477 132.631 153.355 134.104 154.83C135.578 156.304 137.456 157.309 139.5 157.717C141.545 158.124 143.664 157.916 145.59 157.12C147.517 156.323 149.164 154.973 150.323 153.24C151.482 151.507 152.102 149.47 152.103 147.385C152.103 144.588 150.993 141.906 149.016 139.928C147.039 137.95 144.358 136.838 141.561 136.836Z" fill="#1E1E1E"/>
<path d="M141.561 142.345C143.199 142.345 143.395 142.345 144.046 142.345C144.436 142.351 144.822 142.425 145.187 142.562C145.452 142.659 145.691 142.814 145.887 143.017C146.091 143.213 146.249 143.452 146.349 143.717C146.485 144.082 146.556 144.468 146.559 144.858C146.559 145.509 146.559 145.726 146.559 147.336C146.559 148.946 146.559 149.177 146.559 149.821C146.556 150.211 146.485 150.597 146.349 150.962C146.251 151.228 146.093 151.468 145.887 151.662C145.691 151.867 145.452 152.025 145.187 152.124C144.821 152.256 144.435 152.327 144.046 152.334C143.395 152.334 143.199 152.334 141.561 152.334C139.923 152.334 139.727 152.334 139.076 152.334C138.687 152.328 138.301 152.257 137.935 152.124C137.67 152.025 137.431 151.867 137.235 151.662C137.029 151.468 136.871 151.228 136.773 150.962C136.637 150.597 136.566 150.211 136.563 149.821C136.563 149.177 136.521 148.981 136.521 147.336C136.521 145.691 136.521 145.509 136.563 144.858C136.566 144.468 136.637 144.082 136.773 143.717C136.871 143.451 137.029 143.211 137.235 143.017C137.431 142.814 137.67 142.659 137.935 142.562C138.301 142.427 138.686 142.353 139.076 142.345C139.727 142.345 139.916 142.345 141.561 142.345ZM141.561 141.239C139.895 141.239 139.678 141.239 139.027 141.239C138.526 141.244 138.028 141.334 137.557 141.505C137.15 141.663 136.781 141.903 136.472 142.212C136.163 142.52 135.923 142.89 135.765 143.297C135.587 143.775 135.49 144.278 135.478 144.788C135.478 145.446 135.436 145.656 135.436 147.322C135.436 148.988 135.436 149.198 135.478 149.856C135.489 150.366 135.586 150.87 135.765 151.347C135.92 151.759 136.159 152.134 136.468 152.447C136.777 152.761 137.148 153.006 137.557 153.167C138.036 153.342 138.539 153.438 139.048 153.454C139.706 153.454 139.916 153.454 141.582 153.454C143.248 153.454 143.458 153.454 144.116 153.454C144.625 153.438 145.129 153.342 145.607 153.167C146.014 153.008 146.384 152.766 146.692 152.456C147.001 152.146 147.242 151.776 147.399 151.368C147.578 150.891 147.675 150.387 147.686 149.877C147.686 149.226 147.728 149.016 147.728 147.343C147.728 145.67 147.728 145.467 147.686 144.809C147.675 144.302 147.578 143.8 147.399 143.325C147.243 142.917 147.002 142.545 146.694 142.236C146.385 141.926 146.015 141.684 145.607 141.526C145.129 141.348 144.626 141.251 144.116 141.239C143.458 141.239 143.248 141.239 141.582 141.239" fill="white"/>
<path d="M141.561 144.2C140.937 144.199 140.326 144.382 139.806 144.728C139.286 145.074 138.88 145.566 138.64 146.142C138.4 146.719 138.336 147.353 138.456 147.966C138.577 148.579 138.876 149.142 139.317 149.584C139.757 150.027 140.319 150.329 140.931 150.452C141.543 150.575 142.178 150.514 142.756 150.276C143.333 150.039 143.827 149.635 144.175 149.117C144.523 148.598 144.71 147.988 144.711 147.364C144.711 146.529 144.379 145.727 143.788 145.137C143.198 144.546 142.396 144.214 141.561 144.214M141.561 149.401C141.155 149.402 140.758 149.283 140.42 149.059C140.081 148.834 139.817 148.514 139.661 148.14C139.505 147.765 139.463 147.352 139.542 146.954C139.62 146.556 139.815 146.19 140.101 145.902C140.388 145.615 140.753 145.419 141.151 145.339C141.549 145.259 141.962 145.299 142.337 145.454C142.712 145.609 143.033 145.872 143.259 146.21C143.485 146.547 143.605 146.944 143.605 147.35C143.605 147.893 143.39 148.413 143.007 148.798C142.624 149.182 142.104 149.399 141.561 149.401Z" fill="white"/>
<path d="M183.547 157.143C182.228 157.144 180.921 156.885 179.702 156.38C178.483 155.876 177.375 155.136 176.442 154.203C175.509 153.27 174.769 152.162 174.265 150.943C173.76 149.724 173.501 148.417 173.502 147.098C173.502 144.434 174.56 141.879 176.444 139.995C178.328 138.111 180.883 137.053 183.547 137.053C186.211 137.053 188.766 138.111 190.65 139.995C192.534 141.879 193.592 144.434 193.592 147.098C193.593 148.417 193.334 149.724 192.829 150.943C192.325 152.162 191.585 153.27 190.652 154.203C189.719 155.136 188.611 155.876 187.392 156.38C186.173 156.885 184.866 157.144 183.547 157.143Z" fill="#1E1E1E" stroke="#1E1E1E" stroke-width="1.06897" stroke-linecap="round" stroke-linejoin="round"/>
<path d="M178.199 150.5C179.201 151.145 180.368 151.485 181.559 151.48C182.41 151.486 183.253 151.318 184.036 150.985C184.819 150.652 185.525 150.162 186.111 149.545C186.697 148.929 187.15 148.198 187.443 147.399C187.735 146.6 187.86 145.749 187.81 144.9C188.234 144.584 188.601 144.198 188.895 143.759C188.495 143.938 188.07 144.056 187.635 144.109C188.091 143.832 188.432 143.399 188.594 142.891C188.162 143.151 187.688 143.336 187.194 143.437C186.863 143.087 186.425 142.856 185.949 142.779C185.474 142.702 184.986 142.784 184.561 143.011C184.136 143.239 183.798 143.6 183.598 144.038C183.399 144.477 183.349 144.969 183.456 145.439C182.584 145.394 181.73 145.167 180.951 144.771C180.172 144.376 179.485 143.821 178.934 143.143C178.655 143.629 178.572 144.203 178.702 144.748C178.832 145.294 179.165 145.769 179.634 146.076C179.286 146.064 178.945 145.971 178.64 145.803C178.636 146.312 178.809 146.807 179.13 147.203C179.45 147.599 179.898 147.871 180.397 147.973C180.073 148.053 179.734 148.053 179.41 147.973C179.549 148.41 179.822 148.792 180.19 149.066C180.558 149.34 181.002 149.491 181.461 149.499C181.01 149.872 180.489 150.153 179.93 150.324C179.37 150.496 178.782 150.556 178.199 150.5Z" fill="white"/>
<path d="M183.211 181.769C181.124 181.768 179.084 182.385 177.348 183.543C175.613 184.702 174.26 186.349 173.46 188.276C172.661 190.204 172.451 192.325 172.857 194.372C173.263 196.418 174.267 198.299 175.742 199.775C177.217 201.251 179.097 202.256 181.143 202.664C183.19 203.071 185.311 202.863 187.239 202.065C189.167 201.266 190.815 199.914 191.975 198.179C193.134 196.445 193.753 194.405 193.753 192.318C193.753 189.521 192.643 186.839 190.666 184.861C188.689 182.883 186.008 181.771 183.211 181.769Z" fill="#1E1E1E"/>
<path d="M180.131 189.553H177.814V197.043H180.131V189.553Z" fill="white"/>
<path d="M178.962 188.573C179.239 188.573 179.51 188.491 179.74 188.337C179.97 188.183 180.149 187.965 180.255 187.709C180.361 187.453 180.389 187.171 180.335 186.9C180.281 186.628 180.148 186.379 179.952 186.183C179.756 185.987 179.507 185.854 179.235 185.8C178.964 185.746 178.682 185.774 178.426 185.88C178.17 185.986 177.952 186.165 177.798 186.395C177.644 186.625 177.562 186.896 177.562 187.173C177.562 187.544 177.71 187.9 177.972 188.163C178.235 188.425 178.591 188.573 178.962 188.573Z" fill="white"/>
<path d="M183.841 193.116C183.841 192.059 184.324 191.436 185.241 191.436C186.158 191.436 186.501 192.038 186.501 193.116V197.043H188.811V192.318C188.811 190.316 187.67 189.336 186.074 189.336C185.623 189.331 185.178 189.443 184.783 189.662C184.388 189.88 184.056 190.197 183.82 190.582V189.581H181.587V197.071H183.82L183.841 193.116Z" fill="white"/>
<path d="M141.554 202.818C138.758 202.818 136.077 201.707 134.1 199.73C132.123 197.753 131.012 195.072 131.012 192.276C131.012 189.479 132.122 186.797 134.099 184.819C136.076 182.841 138.757 181.729 141.554 181.727C144.352 181.727 147.035 182.838 149.013 184.817C150.992 186.795 152.103 189.478 152.103 192.276C152.101 195.073 150.989 197.754 149.011 199.731C147.033 201.708 144.351 202.818 141.554 202.818Z" fill="#1E1E1E"/>
<path d="M140 196.273C140.303 196.209 140.589 196.083 140.84 195.902C141.108 195.693 141.324 195.425 141.472 195.119C141.62 194.813 141.696 194.478 141.694 194.138C141.705 193.756 141.605 193.38 141.407 193.053C141.205 192.745 140.904 192.515 140.553 192.402C140.767 192.299 140.959 192.157 141.12 191.982C141.358 191.67 141.477 191.282 141.456 190.89C141.469 190.488 141.351 190.092 141.12 189.763C140.885 189.49 140.589 189.276 140.255 189.14C139.922 189.004 139.561 188.948 139.202 188.979H135.625V196.357H138.943C139.297 196.364 139.651 196.336 140 196.273ZM137.102 190.26H138.705C139.001 190.25 139.297 190.29 139.58 190.379C139.716 190.433 139.83 190.532 139.903 190.659C139.975 190.786 140.002 190.934 139.979 191.079C139.992 191.205 139.971 191.331 139.918 191.446C139.865 191.561 139.782 191.659 139.678 191.73C139.438 191.86 139.167 191.923 138.894 191.912H137.102V190.26ZM137.102 195.09V193.116H138.915C139.168 193.111 139.419 193.151 139.657 193.235C139.808 193.303 139.935 193.416 140.02 193.559C140.106 193.702 140.145 193.867 140.133 194.033C140.151 194.218 140.115 194.405 140.028 194.569C139.94 194.733 139.807 194.868 139.643 194.957C139.405 195.053 139.15 195.098 138.894 195.09H137.102Z" fill="white"/>
<path d="M142.919 195.888C143.457 196.342 144.14 196.59 144.844 196.588C145.231 196.618 145.62 196.562 145.983 196.424C146.346 196.286 146.675 196.07 146.944 195.79C147.223 195.531 147.408 195.186 147.469 194.81H146.006C145.935 194.951 145.838 195.077 145.719 195.181C145.491 195.357 145.208 195.447 144.921 195.433C144.644 195.44 144.37 195.37 144.13 195.23C143.944 195.103 143.794 194.929 143.695 194.727C143.595 194.525 143.55 194.3 143.563 194.075H147.546C147.56 193.713 147.546 193.35 147.504 192.99C147.431 192.559 147.258 192.152 147 191.8C146.767 191.448 146.439 191.169 146.055 190.995C145.649 190.818 145.21 190.73 144.767 190.736C144.407 190.722 144.048 190.782 143.712 190.912C143.376 191.042 143.071 191.239 142.814 191.492C142.304 192.092 142.052 192.87 142.114 193.655C142.067 194.064 142.116 194.478 142.255 194.866C142.395 195.253 142.622 195.603 142.919 195.888ZM143.941 192.248C144.055 192.141 144.189 192.058 144.336 192.004C144.483 191.95 144.639 191.926 144.795 191.933C145.107 191.925 145.411 192.032 145.649 192.234C145.768 192.344 145.862 192.477 145.927 192.625C145.992 192.773 146.026 192.933 146.027 193.095H143.563C143.597 192.78 143.729 192.484 143.941 192.248Z" fill="white"/>
<path d="M146.307 189.399H143.094V190.148H146.307V189.399Z" fill="white"/>
<path d="M152.95 90.132H130.298C128.554 90.132 127.141 91.5454 127.141 93.289V115.941C127.141 117.685 128.554 119.098 130.298 119.098H152.95C154.694 119.098 156.107 117.685 156.107 115.941V93.289C156.107 91.5454 154.694 90.132 152.95 90.132Z" stroke="#019990" stroke-width="1.06897" stroke-miterlimit="10"/>
<path d="M194.691 90.132H172.039C170.295 90.132 168.882 91.5454 168.882 93.289V115.941C168.882 117.685 170.295 119.098 172.039 119.098H194.691C196.435 119.098 197.848 117.685 197.848 115.941V93.289C197.848 91.5454 196.435 90.132 194.691 90.132Z" stroke="#019990" stroke-width="1.06897" stroke-miterlimit="10"/>
<path d="M152.95 132.559H130.298C128.554 132.559 127.141 133.972 127.141 135.716V158.368C127.141 160.112 128.554 161.525 130.298 161.525H152.95C154.694 161.525 156.107 160.112 156.107 158.368V135.716C156.107 133.972 154.694 132.559 152.95 132.559Z" stroke="#019990" stroke-width="1.06897" stroke-miterlimit="10"/>
<path d="M194.691 132.559H172.039C170.295 132.559 168.882 133.972 168.882 135.716V158.368C168.882 160.112 170.295 161.525 172.039 161.525H194.691C196.435 161.525 197.848 160.112 197.848 158.368V135.716C197.848 133.972 196.435 132.559 194.691 132.559Z" stroke="#019990" stroke-width="1.06897" stroke-miterlimit="10"/>
<path d="M152.95 177.086H130.298C128.554 177.086 127.141 178.499 127.141 180.243V202.895C127.141 204.639 128.554 206.052 130.298 206.052H152.95C154.694 206.052 156.107 204.639 156.107 202.895V180.243C156.107 178.499 154.694 177.086 152.95 177.086Z" stroke="#019990" stroke-width="1.06897" stroke-miterlimit="10"/>
<path d="M194.691 177.086H172.039C170.295 177.086 168.882 178.499 168.882 180.243V202.895C168.882 204.639 170.295 206.052 172.039 206.052H194.691C196.435 206.052 197.848 204.639 197.848 202.895V180.243C197.848 178.499 196.435 177.086 194.691 177.086Z" stroke="#019990" stroke-width="1.06897" stroke-miterlimit="10"/>
<path d="M193.914 165.543H173.502V171.738H193.914V165.543Z" fill="#019990"/>
<path d="M193.914 123.046H173.502V129.241H193.914V123.046Z" fill="#019990"/>
<path d="M151.767 123.046H131.355V129.241H151.767V123.046Z" fill="#019990"/>
<path d="M151.767 165.543H131.355V171.738H151.767V165.543Z" fill="#019990"/>
<path d="M193.914 165.543H173.502V171.738H193.914V165.543Z" fill="#1E1E1E"/>
<path d="M193.914 123.046H173.502V129.241H193.914V123.046Z" fill="#1E1E1E"/>
<path d="M151.767 123.046H131.355V129.241H151.767V123.046Z" fill="#1E1E1E"/>
<path d="M151.767 165.543H131.355V171.738H151.767V165.543Z" fill="#1E1E1E"/>
<path d="M56 92.554H101.556" stroke="#1E1E1E" stroke-width="1.06897" stroke-linecap="round" stroke-linejoin="round"/>
<path d="M115.647 272.468C115.647 272.468 117.278 278.068 116.732 281.491C116.732 281.491 116.081 287.189 115.332 290.227C114.583 293.265 113.82 295.372 118.097 296.576C122.374 297.78 132.881 295.225 135.345 296.086C137.809 296.947 151.837 295.022 153.93 294.098C156.023 293.174 156.352 286.769 151.83 284.543C147.308 282.317 115.647 272.468 115.647 272.468Z" fill="white"/>
<path d="M116.27 284.2C116.27 284.2 115.052 291.046 115.087 292.292C117.165 291.7 119.305 291.357 121.464 291.27C124.348 291.27 132.993 291.382 136.423 290.864C139.853 290.346 146.447 287.931 149.499 287.917C151.435 287.916 153.368 288.087 155.274 288.428C155.274 288.428 155.631 285.985 150.815 284.711C145.999 283.437 128.45 279.748 128.45 279.748C128.45 279.748 124.53 283.962 116.27 284.2Z" fill="#019990"/>
<path d="M177.408 280.938C177.408 280.938 180.481 278.992 183.372 280.182C186.263 281.372 196.56 281.4 196.56 281.4C196.56 281.4 204.708 280.378 208.18 282.1C211.652 283.822 212.037 286.419 211.764 288.442C211.491 290.465 206.367 295.862 199.64 296.142C192.913 296.422 192.36 294.91 186.83 294.616C186.83 294.616 179.41 294.147 177.268 293.216C175.126 292.285 172.326 291.515 172.41 287.511C172.494 283.507 177.408 280.938 177.408 280.938Z" fill="white"/>
<path d="M177.408 280.938C177.408 280.938 180.523 279.174 186.025 280.826C191.527 282.478 201.222 280.035 205.422 281.491C209.622 282.947 210.203 285.691 209.664 286.748C209.125 287.805 205.548 292.082 201.572 292.761C197.596 293.44 188.629 293.027 184.52 293.776C184.52 293.776 176.029 294.266 173.32 290.024C170.611 285.782 177.408 280.938 177.408 280.938Z" fill="#019990"/>
<path d="M61.894 277.872L56.714 268.219L70.84 253.645L83.587 255.164L90.804 266.161L89.005 272.468L61.894 277.872Z" fill="#1E1E1E"/>
<path d="M51.205 275.233C51.205 275.233 51.597 293.286 63.301 295.239C75.005 297.192 116.774 276.871 116.774 276.871C116.774 276.871 132.328 284.949 144.032 285.971C155.736 286.993 172.732 289.17 174.468 291.116C176.204 293.062 182.7 284.9 178.955 280C178.955 280 166.278 279.195 158.284 275.212C150.29 271.229 124.152 256.109 118.888 255.185C113.624 254.261 83.188 268.688 83.188 268.688L74.018 270.641L51.205 275.233Z" fill="#1E1E1E"/>
<path d="M85.834 262.339L83.587 255.164C83.587 255.164 106.078 230.167 115.647 230.503C125.216 230.839 126.903 239.302 127.547 245.903C128.191 252.504 127.547 262.311 127.547 262.311L105.553 265.062L88.97 272.468L85.799 262.339" fill="#1E1E1E"/>
<path d="M110.236 258.146C110.236 258.538 111.006 246.75 114.387 241.479" stroke="white" stroke-width="1.06897" stroke-linecap="round" stroke-linejoin="round"/>
<path d="M117.978 241.283C117.739 243.611 117.753 245.958 118.02 248.283" stroke="white" stroke-width="1.06897" stroke-linecap="round" stroke-linejoin="round"/>
<path d="M116.368 283.962C116.368 283.962 114.709 292.635 115.164 294.462C115.745 296.779 121.807 296.828 123.529 296.905C127.337 297.066 131.138 296.688 134.946 296.751C137.844 296.8 140.735 297.108 143.64 297.066C146.549 297.127 149.435 296.531 152.082 295.323C154.308 294.21 155.764 292.628 155.484 290.038C155.113 286.622 153.972 285.761 149.254 285.222C144.536 284.683 127.883 279.706 127.883 279.706C127.883 279.706 125.3 284.242 116.368 283.962Z" stroke="#1E1E1E" stroke-width="1.06897" stroke-linecap="round" stroke-linejoin="round"/>
<path d="M116.368 283.962C117.018 280.728 117.018 277.396 116.368 274.162C115.262 269.178 123.837 273.518 123.837 273.518L128.45 278.495L127.883 279.699" stroke="#1E1E1E" stroke-width="1.06897" stroke-linecap="round" stroke-linejoin="round"/>
<path d="M115.647 295.358C115.627 294.862 115.78 294.374 116.08 293.978C116.38 293.582 116.809 293.303 117.292 293.188C118.538 292.859 120.05 293.083 121.317 293.118C123.508 293.188 125.699 293.279 127.89 293.3C135.268 293.363 142.429 291.025 149.8 290.745C151.095 290.696 153.412 290.353 154.56 291.158C156.408 292.453 152.999 294.994 151.718 295.512C148.578 296.642 145.253 297.169 141.918 297.066C137.592 296.863 130.816 296.891 127.883 296.926C124.95 296.961 119.448 298.081 115.647 295.358Z" fill="#1E1E1E"/>
<path d="M115.374 292.264C117.316 291.521 119.386 291.174 121.464 291.242C129.122 291.207 137.564 291.662 144.872 288.946C148.106 287.742 153.391 287.098 155.316 288.946" stroke="#1E1E1E" stroke-width="1.06897" stroke-linecap="round" stroke-linejoin="round"/>
<path d="M173.201 289.59C173.201 289.59 173.474 292.726 178.731 293.468C183.988 294.21 194.6 295.568 198.107 296.051C201.614 296.534 211.673 292.726 211.764 287.791C211.855 282.856 207.522 281.379 204.841 281.288C202.16 281.197 189.441 281.75 186.025 280.826C182.609 279.902 180.67 279.531 178.64 280.735" stroke="#1E1E1E" stroke-width="1.06897" stroke-linecap="round" stroke-linejoin="round"/>
<path d="M206.5 281.491C206.5 281.491 209.489 283.78 209.769 286.083C210.049 288.386 204.05 292.908 198.695 293.37C193.34 293.832 186.48 292.887 183.407 294.07" stroke="#1E1E1E" stroke-width="1.06897" stroke-linecap="round" stroke-linejoin="round"/>
<path d="M52.038 207.445C52.038 207.445 56.126 210.476 58.1 209.174C60.074 207.872 64.4 202.944 64.4 202.944L70.644 206.346L77.196 227.381L81.578 245.973L88.578 249.396V252.371C88.578 252.371 84.462 256.634 80.178 257.901C75.894 259.168 71.218 260.4 67.69 259.574C64.162 258.748 57.4 235.382 57.4 235.382L40.39 210.525L52.038 207.445Z" fill="#1E1E1E"/>
<path d="M107.499 256.333L77.189 248.633L107.499 234.591L136.423 241.969L107.499 256.333Z" fill="white" stroke="#1E1E1E" stroke-width="1.06897" stroke-linecap="round" stroke-linejoin="round"/>
<path d="M107.499 256.333L114.275 225.225L142.583 214.424L136.766 242.172L107.499 256.333Z" fill="white"/>
<path d="M77.189 248.276V249.977L107.681 258.146L137.074 243.418L137.235 241.724L107.681 256.018L77.189 248.276Z" fill="#1E1E1E"/>
<path d="M62.475 205.156C65.9432 209.331 68.6771 214.065 70.56 219.156C73.276 226.989 78.379 243.565 77.938 249.956L88.739 241.556C87.6767 236.203 87.284 230.738 87.57 225.288C88.165 217.308 88.767 204.596 81.788 203.553C74.494 201.992 64.764 199.612 64.764 199.612L62.475 205.156Z" fill="#019990"/>
<path d="M44.212 202.034C44.212 202.034 33.257 207.9 31.899 210.266C30.541 212.632 29.75 211.932 30.261 215.67C30.772 219.408 33.488 231.595 34.146 235.711C34.804 239.827 37.037 257.6 37.037 257.6C39.0485 258.474 41.1303 259.176 43.26 259.7L28.945 278.411C28.945 278.411 34.342 290.136 44.653 290.5C54.964 290.864 59.745 280.833 64.204 273.77C68.663 266.707 71.652 257.159 71.652 257.159L73.815 256.76L73.01 246.61L71.652 246.82C71.652 246.82 71.365 232.666 65.352 221.998C59.339 211.33 44.212 202.034 44.212 202.034Z" fill="#019990"/>
<path opacity="0.2" d="M67.445 201.397C67.445 201.397 72.212 203.833 72.702 206.899C73.192 209.965 71.624 213.766 73.913 215.264C76.202 216.762 78.89 217.077 80.213 221.067C81.536 225.057 81.137 243.509 80.213 246.673C79.289 249.837 77.973 246.673 77.973 246.673L76.454 238.609L73.332 227.066L70.245 218.4L67.445 212.394L64.085 205.555L67.445 201.397Z" fill="white"/>
<path d="M73.626 254.415C73.626 254.415 78.085 255.003 79.576 254.359C81.067 253.715 82.376 253.393 83.426 250.453C84.476 247.513 86.436 246.61 88.543 246.47C90.65 246.33 95.417 245.399 96.243 243.103L94.178 242.956C94.8883 242.755 95.5439 242.396 96.096 241.906H95.228C95.228 241.906 91.084 239.729 88.97 239.204C86.856 238.679 84.595 238.133 82.6 239.855C80.605 241.577 79.534 245.287 78.722 246.253C77.91 247.219 75.761 248.416 72.94 248.409L73.626 254.415Z" fill="white"/>
<path d="M73.913 254.436C73.913 254.436 79.961 255.493 81.977 253.12C83.993 250.747 83.293 247.387 87.773 246.61C92.253 245.833 96.047 244.86 96.257 243.11C96.257 243.11 87.045 242.235 85.057 243.81" stroke="#1E1E1E" stroke-width="1.06897" stroke-linecap="round" stroke-linejoin="round"/>
<path d="M94.5 242.9C95.1339 242.762 95.7075 242.426 96.138 241.941L92.001 241.15C90.552 240.87 89.103 240.387 87.605 240.45C86.2569 240.607 85.0248 241.289 84.175 242.347" stroke="#1E1E1E" stroke-width="1.06897" stroke-linecap="round" stroke-linejoin="round"/>
<path d="M95.004 241.5L90.209 239.673C88.004 238.833 85.407 238.021 83.398 239.26C82.5892 239.824 81.9131 240.557 81.417 241.409C80.8388 242.306 80.322 243.242 79.87 244.209C79.5735 244.95 79.1931 245.655 78.736 246.309C77.427 247.961 75.404 248.374 73.297 248.465" stroke="#1E1E1E" stroke-width="1.06897" stroke-linecap="round" stroke-linejoin="round"/>
<path d="M43.4 202.034C43.4 202.034 49.483 204.414 52.01 207.445C52.01 207.445 58.107 211.589 60.641 207.032C63.175 202.475 63.441 193.298 63.441 193.298L65.8 188.055L64.89 173.992L58.296 164.087L52.038 159.488L45.241 172.606L37.345 177.982L38.248 192.682L43.4 202.034Z" fill="white"/>
<path d="M56.154 165.2C56.154 165.2 56.448 176.484 47.264 180.642C47.264 180.642 44.59 194.341 53.445 197.239C53.445 197.239 54.943 203.644 48.58 204.666C40.369 200.641 41.818 196.336 41.818 196.336L38.983 184.205L38.08 176.05L48.58 167.811L56.154 165.2Z" fill="#019990"/>
<path opacity="0.5" d="M56.154 165.2C56.154 165.2 56.448 176.484 47.264 180.642C47.264 180.642 44.59 194.341 53.445 197.239C53.445 197.239 54.943 203.644 48.58 204.666C40.369 200.641 41.818 196.336 41.818 196.336L38.983 184.205L38.08 176.05L48.58 167.811L56.154 165.2Z" fill="white"/>
<path d="M63.315 171.143C63.315 171.143 63.707 172.417 63.315 176.225C62.923 180.033 63.861 184.898 62.615 188.314C61.369 191.73 59.255 196.938 53.452 197.211C49 197.211 44.352 190.911 43.778 186.774C43.778 186.774 38.409 184.254 39.046 180.684C39.683 177.114 43.127 178.073 44.03 180.684" stroke="#1E1E1E" stroke-width="1.06897" stroke-linecap="round" stroke-linejoin="round"/>
<path d="M58.485 178.227C58.0372 180.329 58.1069 182.507 58.688 184.576C58.8846 185.031 58.9216 185.539 58.793 186.018C58.6937 186.217 58.5464 186.389 58.3643 186.517C58.1822 186.645 57.9712 186.727 57.75 186.753C57.3082 186.8 56.8616 186.762 56.434 186.641" stroke="#1E1E1E" stroke-width="1.06897" stroke-linecap="round" stroke-linejoin="round"/>
<path d="M56.154 189.084C56.154 189.084 53.648 189.861 52.08 188.055" stroke="#1E1E1E" stroke-width="1.06897" stroke-linecap="round" stroke-linejoin="round"/>
<path d="M44.212 202.034C45.766 198.086 42.868 186.249 42.868 186.249" stroke="#1E1E1E" stroke-width="1.06897" stroke-linecap="round" stroke-linejoin="round"/>
<path d="M53.9 176.253C53.9 176.253 50.281 173.103 48.587 177.765" stroke="#1E1E1E" stroke-width="1.06897" stroke-linecap="round" stroke-linejoin="round"/>
<path d="M59.136 176.05C59.4071 175.459 59.8419 174.959 60.389 174.608C60.6666 174.44 60.9878 174.359 61.3118 174.374C61.6358 174.389 61.9481 174.499 62.209 174.692" stroke="#1E1E1E" stroke-width="1.06897" stroke-linecap="round" stroke-linejoin="round"/>
<path d="M52.808 181.972C53.1405 181.972 53.41 181.364 53.41 180.614C53.41 179.864 53.1405 179.256 52.808 179.256C52.4755 179.256 52.206 179.864 52.206 180.614C52.206 181.364 52.4755 181.972 52.808 181.972Z" fill="#1E1E1E"/>
<path d="M60.34 180.012C60.34 180.761 60.074 181.37 59.738 181.37C59.402 181.37 59.136 180.761 59.136 180.012C59.136 179.263 59.402 178.654 59.738 178.654C60.074 178.654 60.34 179.263 60.34 180.012Z" fill="#1E1E1E"/>
<path d="M56.917 196.308C56.917 196.308 55.671 198.8 57.659 204.253" stroke="#1E1E1E" stroke-width="1.06897" stroke-linecap="round" stroke-linejoin="round"/>
<path d="M42.868 178.654C42.868 178.654 56.392 173.642 56.168 165.172C56.168 165.172 58.422 170.639 63.504 173.46C63.504 173.46 62.048 165.718 60.354 162.351C58.66 158.984 48.552 156.338 44.681 157.157C40.81 157.976 33.348 159.53 31.801 172.004C30.254 184.478 31.801 193.858 28.161 198.863C24.521 203.868 25.067 212.52 30.352 213.703C30.8842 212.053 31.7951 210.549 33.012 209.314C34.923 207.494 44.401 202.216 44.401 202.216C44.401 202.216 44.814 192.738 42.882 186.249C42.882 186.249 38.836 185.003 39.053 180.684C39.445 177.324 42.868 178.654 42.868 178.654Z" fill="#1E1E1E"/>
<path d="M59.892 161.7C61.8674 163.726 63.5497 166.019 64.89 168.511C67.823 173.642 71.064 179.431 72.534 185.157C73.105 187.424 73.2177 189.783 72.8655 192.094C72.5133 194.406 71.7033 196.624 70.483 198.618C70.0927 199.188 69.7509 199.79 69.461 200.417C69.1784 201.195 68.9995 202.007 68.929 202.832C68.684 204.701 68.397 206.64 67.375 208.229C66.353 209.818 64.379 210.945 62.566 210.399C60.7991 209.684 59.3736 208.318 58.583 206.584C57.183 202.769 56.301 200.34 56.917 196.322C56.917 196.322 63.322 190.68 63.273 184.191C63.224 177.702 64.379 173.229 61.747 170.009C59.115 166.789 59.892 161.7 59.892 161.7Z" fill="#1E1E1E"/>
<path d="M44.387 202.216C44.387 202.216 35.511 206.85 31.899 210.266C28.287 213.682 31.556 221.578 33.054 229.586C34.552 237.594 35.714 245.224 37.037 257.586C50.015 263.62 62.237 258.72 73.815 256.732L73.01 246.61C71.323 246.701 62.51 249.305 54.81 247.03C50.834 245.847 47.593 247.569 44.856 250.684" stroke="#1E1E1E" stroke-width="1.06897" stroke-linecap="round" stroke-linejoin="round"/>
<path d="M42.763 247.996C46.718 246.05 50.295 245.196 53.963 246.82" stroke="#1E1E1E" stroke-width="1.06897" stroke-linecap="round" stroke-linejoin="round"/>
<path d="M53.2 246.519C50.911 240.338 50.351 233.177 49.287 226.366" stroke="#1E1E1E" stroke-width="1.06897" stroke-linecap="round" stroke-linejoin="round"/>
<path d="M37.037 215.67C41.912 218.499 45.7033 222.874 47.81 228.102" stroke="#1E1E1E" stroke-width="1.06897" stroke-linecap="round" stroke-linejoin="round"/>
<path d="M45.864 220.283L47.649 223.713" stroke="#1E1E1E" stroke-width="1.06897" stroke-linecap="round" stroke-linejoin="round"/>
<path d="M44.212 202.034C44.212 202.034 61.845 212.17 67.039 225.47C72.233 238.77 71.526 246.659 71.526 246.659" stroke="#1E1E1E" stroke-width="1.06897" stroke-linecap="round" stroke-linejoin="round"/>
<path d="M44.212 202.034C42.329 206.08 44.079 210.805 46.774 214.025C49.574 217.385 54.159 219.205 58.408 219.87C58.87 219.94 59.423 220.052 59.577 220.493C59.6518 220.72 59.6518 220.966 59.577 221.193C58.94 223.293 56.98 224.959 57.022 227.143C57.0975 228.041 57.3522 228.914 57.771 229.712C60.1507 235.029 62.8313 240.205 65.8 245.217" stroke="#1E1E1E" stroke-width="1.06897" stroke-linecap="round" stroke-linejoin="round"/>
<path opacity="0.5" d="M45.241 162.008C44.4382 166.604 42.7758 171.007 40.341 174.986" stroke="white" stroke-width="1.06897" stroke-linecap="round" stroke-linejoin="round"/>
<path opacity="0.5" d="M37.345 164.087C34.811 170.002 36.015 176.757 35.749 183.19C35.4978 188.985 34.0134 194.66 31.395 199.836" stroke="white" stroke-width="1.06897" stroke-linecap="round" stroke-linejoin="round"/>
<path d="M71.652 257.152C71.652 257.152 62.734 281.281 54.152 287.462C45.57 293.643 36.043 290.332 28.952 278.411L43.26 259.735" stroke="#1E1E1E" stroke-width="1.06897" stroke-linecap="round" stroke-linejoin="round"/>
<path d="M45.829 260.463C47.2009 265.814 50.3658 270.533 54.796 273.833" stroke="#1E1E1E" stroke-width="1.06897" stroke-linecap="round" stroke-linejoin="round"/>
<path d="M44.1 260.274C43.4517 264.198 43.6498 268.214 44.681 272.055" stroke="#1E1E1E" stroke-width="1.06897" stroke-linecap="round" stroke-linejoin="round"/>
<path d="M59.136 199.983C59.136 199.983 67.27 208.663 72.226 223.713C77.182 238.763 77.938 247.03 77.938 247.03" stroke="#1E1E1E" stroke-width="1.06897" stroke-linecap="round" stroke-linejoin="round"/>
<path d="M52.808 208.054C52.808 208.054 58.072 211.554 60.669 207.032C63.266 202.51 61.369 200.977 61.369 200.977" stroke="#1E1E1E" stroke-width="1.06897" stroke-linecap="round" stroke-linejoin="round"/>
<path d="M60.2 199.339C61.845 199.073 63.497 199.647 65.037 200.277C66.8893 200.962 68.6194 201.941 70.161 203.175C71.7117 204.424 72.73 206.216 73.01 208.187C73.227 210.35 72.31 212.744 73.437 214.613C74.697 216.713 77.826 216.902 79.303 218.848C79.9432 219.844 80.3235 220.985 80.409 222.166C81.3523 229.043 81.3829 236.015 80.5 242.9" stroke="#1E1E1E" stroke-width="1.06897" stroke-linecap="round" stroke-linejoin="round"/>
<path d="M79.212 212.45C81.0671 214.073 82.6174 216.015 83.79 218.183C84.963 220.376 85.2702 222.929 84.651 225.337C84.385 226.205 83.951 227.024 83.741 227.899C83.5414 228.74 83.4218 229.598 83.384 230.461L82.684 239.561" stroke="#1E1E1E" stroke-width="1.06897" stroke-linecap="round" stroke-linejoin="round"/>
<path d="M62.475 198.548C65.912 199.577 69.3 200.9 72.8 201.649C76.3 202.398 79.611 202.587 82.943 203.896C83.4356 204.073 83.9055 204.308 84.343 204.596C87.206 206.598 87.185 210.63 87.507 213.696C88.487 223.041 85.918 230.027 88.543 239.05" stroke="#1E1E1E" stroke-width="1.06897" stroke-linecap="round" stroke-linejoin="round"/>
<path d="M70.84 259.532C70.84 259.532 79.611 260.463 87.689 253.148" stroke="#1E1E1E" stroke-width="1.06897" stroke-linecap="round" stroke-linejoin="round"/>
<path opacity="0.5" d="M65.1 209.37C63.49 207.018 62.391 204.169 62.811 201.355C63.084 199.528 63.973 197.855 64.771 196.203C65.8825 194.064 66.6996 191.785 67.2 189.427C67.6921 187.056 67.4879 184.593 66.612 182.336C65.8632 180.766 64.9099 179.302 63.777 177.982" stroke="white" stroke-width="1.06897" stroke-linecap="round" stroke-linejoin="round"/>
<path d="M107.499 256.333L142.583 214.424L136.766 242.172L107.499 256.333Z" fill="#1E1E1E"/>
<path opacity="0.8" d="M107.499 256.333L142.583 214.424L136.766 242.172L107.499 256.333Z" fill="white"/>
<path d="M130.473 234.185C129.99 236.075 128.583 237.342 127.33 237.02C126.077 236.698 125.468 234.92 125.93 233.016C126.392 231.112 127.827 229.859 129.073 230.181C130.319 230.503 130.963 232.295 130.473 234.185Z" fill="#1E1E1E"/>
<path d="M107.499 256.333L114.275 225.225L142.583 214.424L136.766 242.172L107.499 256.333Z" stroke="#1E1E1E" stroke-width="1.06897" stroke-linecap="round" stroke-linejoin="round"/>
<path d="M106.351 255.661L112.987 224.756L141.659 213.976L142.716 214.242L114.275 225.225L107.499 256.333L106.351 255.661Z" fill="#1E1E1E"/>
<path opacity="0.2" d="M44.212 202.034C44.212 202.034 41.72 208.901 46.774 214.025C51.828 219.149 59.577 220.5 59.577 220.5V221.2C59.577 221.2 56.217 225.757 57.162 228.102C58.107 230.447 66.787 247.639 66.787 247.639L71.687 246.82C71.7802 238.8 69.9359 230.875 66.311 223.72C60.2 212.1 44.212 202.034 44.212 202.034Z" fill="white"/>
<path opacity="0.2" d="M41.839 261.583C41.839 261.583 42.189 266.665 44.121 269.633C44.121 269.633 44.345 265.895 44.653 262.598C44.653 262.598 47.516 269.92 53.165 272.503C53.165 272.503 49.833 265.895 48.755 262.598C48.755 262.598 60.088 264.614 71.036 258.867V257.271C71.036 257.271 54.152 262.22 43.26 259.735L41.839 261.583Z" fill="white"/>
<path opacity="0.2" d="M49.406 227.381L56.406 245.217L64.862 248.017L55.566 247.66C55.566 247.66 51.247 247.037 45.836 249.956C45.836 249.956 46.081 248.381 48.321 247.051C48.321 247.051 47.516 246.267 44.121 247.366C45.7432 245.761 47.6398 244.459 49.721 243.523L49.406 227.381Z" fill="white"/>
<path opacity="0.2" d="M80.535 213.5C78.848 211.68 84.56 216.482 85.344 218.834C86.128 221.186 86.17 223.734 86.156 226.205C86.142 228.676 86.086 231.21 86.716 233.611C87.136 235.214 88.046 237.454 88.543 239.036C88.543 239.036 83.944 238.399 82.712 239.512L83.741 227.878C83.741 227.878 87.5 221.06 80.535 213.5Z" fill="white"/>
<path d="M96.257 243.103L108.206 237.118L110.803 237.699" stroke="#1E1E1E" stroke-width="1.06897" stroke-linecap="round" stroke-linejoin="round"/>
<path d="M107.212 253.645L86.079 248.073L92.148 245.714" stroke="#1E1E1E" stroke-width="1.06897" stroke-linecap="round" stroke-linejoin="round"/>
<path d="M110.516 239.358L90.804 249.242" stroke="#1E1E1E" stroke-width="1.06897" stroke-linecap="round" stroke-linejoin="round"/>
<path d="M110.215 243.103L95.536 250.467" stroke="#1E1E1E" stroke-width="1.06897" stroke-linecap="round" stroke-linejoin="round"/>
<path d="M109.578 246.792L99.806 251.692" stroke="#1E1E1E" stroke-width="1.06897" stroke-linecap="round" stroke-linejoin="round"/>
<path d="M89.243 246.344L108.276 251.279" stroke="#1E1E1E" stroke-width="1.06897" stroke-linecap="round" stroke-linejoin="round"/>
<path d="M94.647 244.783L109.193 248.563" stroke="#1E1E1E" stroke-width="1.06897" stroke-linecap="round" stroke-linejoin="round"/>
<path d="M97.594 242.438L109.578 245.546" stroke="#1E1E1E" stroke-width="1.06897" stroke-linecap="round" stroke-linejoin="round"/>
<path d="M101.241 240.611L110.215 242.942" stroke="#1E1E1E" stroke-width="1.06897" stroke-linecap="round" stroke-linejoin="round"/>
<path d="M104.979 238.882L110.803 240.387" stroke="#1E1E1E" stroke-width="1.06897" stroke-linecap="round" stroke-linejoin="round"/>
<path d="M126.973 259.35C130.837 260.694 133.973 262.15 133.973 262.15" stroke="white" stroke-width="1.06897" stroke-linecap="round" stroke-linejoin="round"/>
<path d="M77.938 268.1C77.938 268.1 111.482 256.725 117.838 257.145C119.392 257.274 120.932 257.543 122.437 257.95" stroke="white" stroke-width="1.06897" stroke-linecap="round" stroke-linejoin="round"/>
<path d="M83.587 266.238C84.987 264.684 85.862 263.879 86.625 262.626" stroke="white" stroke-width="1.06897" stroke-linecap="round" stroke-linejoin="round"/>
</svg>
