<?xml version="1.0" standalone="no"?>
<!DOCTYPE svg PUBLIC "-//W3C//DTD SVG 20010904//EN"
 "http://www.w3.org/TR/2001/REC-SVG-20010904/DTD/svg10.dtd">
<svg version="1.0" xmlns="http://www.w3.org/2000/svg"
 width="1026.000000pt" height="1026.000000pt" viewBox="0 0 1026.000000 1026.000000"
 preserveAspectRatio="xMidYMid meet">

<g transform="translate(0.000000,1026.000000) scale(0.100000,-0.100000)"
fill="#000000" stroke="none">
<path d="M702 9869 c-75 -14 -150 -56 -204 -111 -60 -62 -95 -133 -109 -220
-6 -39 -9 -440 -7 -1033 3 -902 4 -973 21 -1015 45 -113 142 -209 250 -247 49
-17 115 -18 1057 -18 942 0 1008 1 1057 18 108 38 205 134 250 247 17 42 18
111 18 1060 l0 1015 -23 57 c-43 107 -123 186 -233 231 l-54 22 -990 2 c-545
0 -1009 -3 -1033 -8z m1796 -400 c70 -34 105 -71 139 -145 l24 -52 -3 -733 -3
-734 -22 -41 c-36 -67 -70 -101 -135 -133 l-61 -31 -727 0 -727 0 -61 31 c-65
32 -99 66 -135 133 l-22 41 -3 725 c-2 516 0 737 8 766 19 67 77 134 149 171
l63 33 727 0 728 0 61 -31z"/>
<path d="M1245 9106 c-47 -20 -93 -79 -100 -128 -3 -24 -5 -233 -3 -465 l3
-421 30 -38 c63 -77 45 -75 546 -72 l446 3 37 29 c75 57 76 58 76 531 0 246
-4 435 -10 455 -11 41 -61 94 -103 109 -44 17 -883 14 -922 -3z"/>
<path d="M3895 9866 c-42 -18 -83 -69 -91 -112 -11 -59 0 -152 22 -181 43 -58
68 -68 164 -68 96 0 121 10 164 69 18 23 21 42 21 116 0 96 -10 121 -69 164
-35 26 -164 34 -211 12z"/>
<path d="M5040 9869 c-30 -12 -68 -46 -83 -74 -6 -11 -14 -61 -17 -110 -5 -73
-11 -96 -29 -122 -42 -56 -52 -58 -353 -63 -260 -5 -278 -6 -304 -26 -56 -41
-67 -67 -74 -167 -5 -75 -10 -98 -29 -124 -42 -56 -52 -58 -353 -63 -260 -5
-278 -6 -304 -26 -59 -43 -69 -68 -69 -164 0 -74 3 -93 21 -116 41 -56 67 -67
166 -74 147 -10 178 -41 188 -188 7 -98 18 -125 73 -166 20 -15 49 -21 119
-26 147 -10 178 -41 188 -188 7 -99 18 -125 74 -166 23 -18 42 -21 116 -21 74
0 93 3 116 21 56 41 67 67 74 166 10 147 41 178 188 188 99 7 125 18 166 74
18 23 21 42 21 116 0 74 -3 93 -21 116 -41 55 -68 68 -162 74 -146 9 -192 54
-192 188 0 137 44 185 176 190 149 7 194 -35 204 -185 7 -100 18 -126 74 -167
23 -18 42 -21 116 -21 96 0 121 10 164 69 21 27 21 38 21 496 0 458 0 469 -21
496 -41 55 -70 69 -152 71 -42 2 -88 -2 -102 -8z"/>
<path d="M5800 9869 c-29 -12 -67 -45 -83 -74 -9 -14 -13 -206 -17 -680 l-5
-660 -24 -31 c-33 -45 -64 -57 -163 -64 -94 -6 -121 -19 -162 -74 -18 -23 -21
-42 -21 -116 0 -74 3 -93 21 -116 41 -56 67 -67 167 -74 106 -7 143 -25 171
-85 15 -30 17 -70 14 -308 -3 -268 -3 -273 -26 -302 -38 -48 -78 -64 -160 -65
-53 0 -83 5 -111 19 -59 30 -74 62 -81 169 -7 99 -18 125 -74 166 -23 18 -42
21 -116 21 -96 0 -121 -10 -164 -69 -20 -26 -21 -44 -26 -309 -5 -277 -5 -283
-28 -312 -38 -48 -78 -64 -160 -65 -83 0 -137 21 -168 67 -17 25 -19 54 -24
310 -5 265 -6 283 -26 309 -43 59 -68 69 -164 69 -74 0 -93 -3 -116 -21 -56
-41 -67 -67 -74 -167 -7 -104 -23 -137 -83 -169 -46 -25 -166 -24 -216 1 -59
30 -74 62 -81 169 -7 99 -18 125 -74 166 -23 18 -42 21 -116 21 -96 0 -121
-10 -164 -69 -20 -26 -21 -44 -26 -309 -5 -277 -5 -283 -29 -313 -45 -61 -18
-59 -733 -64 -644 -5 -657 -5 -684 -26 -59 -43 -69 -68 -69 -164 0 -96 10
-121 69 -164 27 -20 42 -21 499 -26 435 -5 474 -6 499 -23 48 -33 61 -65 68
-165 7 -98 18 -125 73 -166 20 -15 49 -21 119 -26 100 -7 132 -20 165 -68 17
-25 18 -64 23 -499 5 -457 6 -472 26 -499 43 -59 68 -69 164 -69 96 0 121 10
164 69 20 26 21 44 26 309 4 251 7 285 23 309 33 48 65 61 165 68 99 7 125 18
166 74 18 23 21 42 21 116 0 74 -3 93 -21 116 -41 55 -68 68 -162 74 -101 6
-145 26 -173 80 -17 31 -19 60 -19 298 0 292 3 312 64 355 25 17 48 23 112 25
95 5 141 -12 177 -62 21 -30 22 -41 27 -313 6 -310 5 -306 74 -357 26 -20 40
-21 306 -21 266 0 280 1 306 21 56 41 67 67 74 167 10 150 55 192 204 185 137
-5 181 -56 174 -202 -2 -66 -7 -87 -27 -112 -33 -45 -64 -57 -163 -64 -93 -6
-121 -19 -162 -73 -15 -20 -21 -49 -26 -120 -9 -145 -42 -176 -192 -187 -94
-6 -121 -19 -162 -74 -18 -23 -21 -42 -21 -116 0 -96 10 -121 69 -164 26 -20
44 -21 309 -26 251 -4 285 -7 309 -23 48 -33 61 -65 68 -165 7 -99 18 -125 74
-166 23 -18 42 -21 116 -21 74 0 93 3 116 21 56 41 67 67 74 167 9 145 52 187
190 187 138 0 181 -42 190 -187 5 -71 11 -100 26 -120 41 -55 68 -66 166 -73
100 -7 132 -20 165 -68 16 -24 19 -58 23 -309 6 -310 5 -306 74 -357 26 -20
40 -21 306 -21 266 0 280 1 306 21 56 41 67 67 74 166 10 147 41 178 188 188
70 5 99 11 119 26 55 41 66 68 73 166 10 147 41 178 188 188 99 7 125 18 166
74 18 23 21 42 21 116 0 74 -3 93 -21 116 -41 55 -68 68 -162 74 -149 10 -182
42 -192 188 -7 98 -18 125 -73 166 -21 15 -49 21 -115 26 -146 9 -192 54 -192
188 0 86 18 132 64 165 30 21 41 22 313 27 265 5 283 6 309 26 59 43 69 68 69
164 0 74 -3 93 -21 116 -41 55 -68 68 -162 74 -149 10 -182 42 -192 188 -7 99
-18 125 -74 166 -27 21 -38 21 -496 21 -458 0 -469 0 -496 -21 -15 -11 -37
-33 -48 -48 -20 -27 -21 -42 -26 -499 l-5 -473 -23 -29 c-38 -48 -78 -64 -160
-65 -83 0 -137 21 -168 67 -17 25 -19 54 -24 310 -5 265 -6 283 -26 309 -41
55 -68 68 -162 74 -146 9 -192 54 -192 188 0 86 18 132 64 165 30 21 41 22
313 27 265 5 283 6 309 26 59 43 69 68 69 164 0 74 -3 93 -21 116 -41 55 -68
68 -162 74 -146 9 -192 54 -192 188 0 137 44 185 176 190 149 7 194 -35 204
-185 7 -100 18 -126 74 -167 23 -18 42 -21 116 -21 96 0 121 10 164 69 20 26
21 40 21 306 0 266 -1 280 -21 306 -41 55 -68 68 -162 74 -146 9 -192 54 -192
188 0 140 41 183 187 192 100 7 126 18 167 74 18 23 21 42 21 116 0 96 -10
121 -69 164 -26 20 -44 21 -304 26 -254 5 -280 7 -311 25 -51 30 -71 76 -71
163 0 140 41 183 187 192 100 7 126 18 167 74 20 26 21 40 21 306 0 266 -1
280 -21 306 -11 15 -33 37 -48 48 -26 20 -42 21 -294 23 -164 1 -277 -2 -292
-8z"/>
<path d="M7542 9869 c-75 -14 -150 -56 -204 -111 -60 -62 -95 -133 -109 -220
-6 -39 -9 -440 -7 -1033 3 -902 4 -973 21 -1015 45 -113 142 -209 250 -247 49
-17 115 -18 1057 -18 942 0 1008 1 1057 18 108 38 205 134 250 247 17 42 18
111 18 1060 l0 1015 -23 57 c-43 107 -123 186 -233 231 l-54 22 -990 2 c-544
0 -1009 -3 -1033 -8z m1796 -400 c70 -34 105 -71 139 -145 l24 -52 -3 -733 -3
-734 -22 -41 c-36 -67 -70 -101 -135 -133 l-61 -31 -727 0 -727 0 -61 31 c-65
32 -99 66 -135 133 l-22 41 -3 725 c-2 516 0 737 8 766 19 67 77 134 149 171
l63 33 727 0 728 0 61 -31z"/>
<path d="M8085 9106 c-47 -20 -93 -79 -100 -128 -3 -24 -5 -233 -3 -465 l3
-421 30 -38 c63 -77 45 -75 546 -72 l446 3 37 29 c75 57 76 58 76 531 0 246
-4 435 -10 455 -11 41 -61 94 -103 109 -44 17 -883 14 -922 -3z"/>
<path d="M3895 7966 c-42 -18 -83 -69 -91 -112 -11 -59 0 -152 22 -181 43 -58
68 -68 164 -68 96 0 121 10 164 69 18 23 21 42 21 116 0 96 -10 121 -69 164
-35 26 -164 34 -211 12z"/>
<path d="M475 6826 c-42 -18 -83 -69 -91 -112 -3 -19 -4 -62 -2 -94 5 -64 23
-98 72 -134 27 -21 38 -21 496 -21 458 0 469 0 496 21 59 43 69 68 69 164 0
96 -10 121 -69 164 -27 20 -40 21 -484 23 -365 2 -463 0 -487 -11z"/>
<path d="M8835 6826 c-42 -18 -83 -69 -91 -112 -11 -59 0 -152 22 -181 43 -58
68 -68 164 -68 74 0 93 3 116 21 59 43 69 68 69 164 0 96 -10 121 -69 164 -35
26 -164 34 -211 12z"/>
<path d="M9600 6449 c-30 -12 -68 -46 -83 -74 -6 -11 -14 -61 -17 -110 -5 -73
-11 -96 -29 -122 -42 -56 -52 -58 -353 -63 -260 -5 -278 -6 -304 -26 -59 -43
-69 -68 -69 -164 0 -74 3 -93 21 -116 41 -56 67 -67 166 -74 100 -7 132 -20
165 -68 16 -24 19 -58 23 -309 5 -265 6 -283 26 -309 41 -56 67 -67 167 -74
107 -7 143 -25 172 -86 26 -55 18 -188 -14 -230 -42 -57 -52 -59 -353 -64
-260 -5 -278 -6 -304 -26 -59 -43 -69 -68 -69 -164 0 -74 3 -93 21 -116 41
-56 67 -67 166 -74 147 -10 178 -41 188 -188 7 -99 18 -125 74 -166 23 -18 42
-21 116 -21 74 0 93 3 116 21 56 41 67 67 74 166 10 147 41 178 188 188 99 7
125 18 166 74 21 27 21 38 21 496 0 458 0 469 -21 496 -41 55 -68 68 -162 74
-146 9 -192 54 -192 188 0 140 41 183 187 192 100 7 126 18 167 74 20 26 21
40 21 306 0 266 -1 280 -21 306 -41 55 -70 69 -152 71 -42 2 -88 -2 -102 -8z"/>
<path d="M475 6066 c-42 -18 -83 -69 -91 -112 -3 -19 -4 -62 -2 -94 5 -64 23
-98 72 -134 26 -20 44 -21 309 -26 251 -4 285 -7 309 -23 48 -33 61 -65 68
-165 7 -99 18 -125 74 -166 23 -18 42 -21 116 -21 74 0 93 3 116 21 56 41 67
67 74 166 10 147 41 178 188 188 99 7 125 18 166 74 18 23 21 42 21 116 0 96
-10 121 -69 164 -27 21 -38 21 -674 23 -523 2 -653 0 -677 -11z"/>
<path d="M2755 6066 c-42 -18 -83 -69 -91 -112 -11 -59 0 -152 22 -181 43 -58
68 -68 164 -68 74 0 93 3 116 21 59 43 69 68 69 164 0 96 -10 121 -69 164 -35
26 -164 34 -211 12z"/>
<path d="M8075 6066 c-42 -18 -83 -69 -91 -112 -11 -59 0 -152 22 -181 43 -58
68 -68 164 -68 96 0 121 10 164 69 18 23 21 42 21 116 0 96 -10 121 -69 164
-35 26 -164 34 -211 12z"/>
<path d="M475 5306 c-42 -18 -83 -69 -91 -112 -11 -59 0 -152 22 -181 43 -58
68 -68 164 -68 74 0 93 3 116 21 59 43 69 68 69 164 0 96 -10 121 -69 164 -35
26 -164 34 -211 12z"/>
<path d="M2755 5306 c-42 -18 -83 -69 -91 -112 -11 -59 0 -152 22 -181 43 -58
68 -68 164 -68 96 0 121 10 164 69 18 23 21 42 21 116 0 96 -10 121 -69 164
-35 26 -164 34 -211 12z"/>
<path d="M8455 5306 c-41 -18 -83 -69 -90 -109 -3 -18 -5 -145 -3 -284 3 -236
4 -253 24 -279 43 -59 68 -69 164 -69 96 0 121 10 164 69 20 26 21 40 21 306
0 266 -1 280 -21 306 -41 55 -70 69 -152 72 -49 1 -88 -3 -107 -12z"/>
<path d="M1620 4929 c-29 -12 -67 -46 -83 -74 -6 -11 -14 -61 -17 -110 -9
-142 -43 -174 -192 -185 -94 -6 -121 -19 -162 -74 -18 -23 -21 -42 -21 -116 0
-96 10 -121 69 -164 27 -21 38 -21 496 -21 458 0 469 0 496 21 56 41 67 67 74
166 10 147 41 178 188 188 99 7 125 18 166 74 18 23 21 42 21 116 0 96 -10
121 -69 164 -27 20 -40 21 -484 23 -290 1 -466 -2 -482 -8z"/>
<path d="M3140 4929 c-30 -12 -68 -46 -83 -74 -6 -11 -14 -61 -17 -110 -9
-142 -43 -174 -192 -185 -94 -6 -121 -19 -162 -74 -18 -23 -21 -42 -21 -116 0
-74 3 -93 21 -116 41 -56 67 -67 166 -74 147 -10 178 -41 188 -188 7 -99 18
-125 74 -166 23 -18 42 -21 116 -21 96 0 121 10 164 69 21 27 21 38 21 496 0
458 0 469 -21 496 -41 55 -70 69 -152 71 -42 2 -88 -2 -102 -8z"/>
<path d="M3895 4926 c-42 -18 -83 -69 -91 -112 -11 -59 0 -152 22 -181 43 -58
68 -68 164 -68 96 0 121 10 164 69 18 23 21 42 21 116 0 96 -10 121 -69 164
-35 26 -164 34 -211 12z"/>
<path d="M5035 4926 c-42 -18 -83 -69 -91 -112 -11 -59 0 -152 22 -181 43 -58
68 -68 164 -68 96 0 121 10 164 69 18 23 21 42 21 116 0 96 -10 121 -69 164
-35 26 -164 34 -211 12z"/>
<path d="M475 4546 c-42 -18 -83 -69 -91 -112 -11 -59 0 -152 22 -181 43 -58
68 -68 164 -68 74 0 93 3 116 21 59 43 69 68 69 164 0 96 -10 121 -69 164 -35
26 -164 34 -211 12z"/>
<path d="M5795 4546 c-42 -18 -83 -69 -91 -112 -11 -59 0 -152 22 -181 43 -58
68 -68 164 -68 96 0 121 10 164 69 18 23 21 42 21 116 0 96 -10 121 -69 164
-35 26 -164 34 -211 12z"/>
<path d="M7695 4546 c-42 -18 -83 -69 -91 -112 -11 -59 0 -152 22 -181 43 -58
68 -68 164 -68 74 0 93 3 116 21 59 43 69 68 69 164 0 96 -10 121 -69 164 -35
26 -164 34 -211 12z"/>
<path d="M855 4166 c-42 -18 -83 -69 -91 -112 -11 -59 0 -152 22 -181 43 -58
68 -68 164 -68 74 0 93 3 116 21 59 43 69 68 69 164 0 96 -10 121 -69 164 -35
26 -164 34 -211 12z"/>
<path d="M2375 4166 c-42 -18 -83 -69 -91 -112 -11 -59 0 -152 22 -181 43 -58
68 -68 164 -68 96 0 121 10 164 69 18 23 21 42 21 116 0 96 -10 121 -69 164
-35 26 -164 34 -211 12z"/>
<path d="M3895 4166 c-42 -18 -83 -69 -91 -112 -11 -59 0 -152 22 -181 43 -58
68 -68 164 -68 96 0 121 10 164 69 18 23 21 42 21 116 0 96 -10 121 -69 164
-35 26 -164 34 -211 12z"/>
<path d="M5040 4169 c-29 -12 -67 -46 -83 -74 -6 -11 -14 -61 -17 -110 -9
-142 -43 -174 -192 -185 -94 -6 -121 -19 -162 -74 -18 -23 -21 -42 -21 -116 0
-74 3 -93 21 -116 41 -56 67 -67 166 -74 100 -7 132 -20 165 -68 16 -24 19
-58 23 -309 5 -265 6 -283 26 -309 41 -56 67 -67 167 -74 107 -7 143 -25 172
-86 26 -55 18 -188 -14 -230 -33 -45 -64 -57 -163 -64 -94 -6 -121 -19 -162
-74 -20 -26 -21 -40 -21 -306 0 -266 1 -280 21 -306 51 -69 47 -68 357 -74
251 -4 285 -7 309 -23 48 -33 61 -65 68 -165 5 -70 11 -99 26 -119 41 -55 68
-66 166 -73 147 -10 178 -41 188 -188 7 -98 18 -125 73 -166 20 -15 49 -21
119 -26 147 -10 178 -41 188 -188 7 -99 18 -125 74 -166 27 -21 36 -21 686
-21 650 0 659 0 686 21 59 43 69 68 69 164 0 96 -10 121 -69 164 -27 20 -42
21 -494 26 -415 4 -470 7 -498 22 -52 28 -67 63 -74 166 -7 98 -18 125 -73
166 -21 15 -49 22 -115 26 -149 10 -182 42 -192 188 -7 98 -18 125 -73 166
-21 15 -49 22 -115 26 -149 10 -182 42 -192 188 -7 98 -18 125 -73 166 -21 15
-49 21 -115 26 -146 9 -192 54 -192 188 0 140 41 183 187 192 100 7 126 18
167 74 18 23 21 42 21 116 0 74 -3 93 -21 116 -41 55 -68 68 -162 74 -149 10
-182 42 -192 188 -7 98 -18 125 -73 166 -21 15 -49 21 -115 26 -146 9 -192 54
-192 188 0 140 41 183 187 192 100 7 126 18 167 74 20 26 21 40 21 306 0 266
-1 280 -21 306 -11 15 -33 37 -48 48 -26 20 -42 21 -294 23 -164 1 -277 -2
-292 -8z"/>
<path d="M6175 4166 c-42 -18 -83 -69 -91 -112 -11 -59 0 -152 22 -181 43 -58
68 -68 164 -68 74 0 93 3 116 21 59 43 69 68 69 164 0 96 -10 121 -69 164 -35
26 -164 34 -211 12z"/>
<path d="M8080 4169 c-30 -12 -68 -46 -83 -74 -6 -11 -14 -61 -17 -110 -5 -73
-11 -96 -29 -122 -45 -60 -18 -58 -733 -63 -644 -5 -657 -5 -684 -26 -15 -11
-37 -33 -48 -48 -21 -27 -21 -33 -21 -1066 0 -1033 0 -1039 21 -1066 43 -59
68 -69 164 -69 74 0 93 3 116 21 56 41 67 67 74 167 7 106 25 143 84 171 51
24 541 24 592 0 59 -28 77 -65 84 -171 5 -71 11 -100 26 -120 41 -55 68 -66
166 -73 100 -7 132 -20 165 -68 16 -24 19 -58 23 -309 6 -310 5 -306 74 -357
26 -20 40 -21 306 -21 266 0 280 1 306 21 59 43 69 68 69 164 0 74 -3 93 -21
116 -41 55 -68 68 -162 74 -146 9 -192 54 -192 188 0 86 18 132 64 165 30 21
41 22 313 27 265 5 283 6 309 26 59 43 69 68 69 164 0 74 -3 93 -21 116 -41
55 -68 68 -162 74 -96 6 -138 23 -168 67 -18 27 -19 64 -24 880 -5 841 -5 852
-26 879 -41 55 -68 68 -162 74 -149 10 -182 42 -192 188 -7 99 -18 125 -74
166 -21 16 -45 21 -104 23 -42 2 -88 -2 -102 -8z m-184 -765 c19 -9 44 -31 57
-48 l22 -31 0 -475 0 -475 -23 -30 c-51 -65 -40 -64 -542 -64 -453 -1 -455 -1
-494 22 -78 45 -77 32 -74 557 3 462 3 465 25 496 46 64 41 64 541 64 398 0
458 -2 488 -16z"/>
<path d="M7315 3026 c-42 -18 -83 -69 -91 -112 -11 -59 0 -152 22 -181 43 -58
68 -68 164 -68 74 0 93 3 116 21 59 43 69 68 69 164 0 96 -10 121 -69 164 -35
26 -164 34 -211 12z"/>
<path d="M475 3786 c-42 -18 -83 -69 -91 -112 -11 -59 0 -152 22 -181 43 -58
68 -68 164 -68 74 0 93 3 116 21 59 43 69 68 69 164 0 96 -10 121 -69 164 -35
26 -164 34 -211 12z"/>
<path d="M1615 3786 c-42 -18 -83 -69 -91 -112 -11 -59 0 -152 22 -181 43 -58
68 -68 164 -68 74 0 93 3 116 21 59 43 69 68 69 164 0 96 -10 121 -69 164 -35
26 -164 34 -211 12z"/>
<path d="M2755 3786 c-42 -18 -83 -69 -91 -112 -11 -59 0 -152 22 -181 43 -58
68 -68 164 -68 96 0 121 10 164 69 18 23 21 42 21 116 0 96 -10 121 -69 164
-35 26 -164 34 -211 12z"/>
<path d="M3515 3406 c-41 -18 -83 -69 -90 -109 -3 -18 -5 -316 -3 -664 3 -620
3 -632 24 -659 43 -59 68 -69 164 -69 96 0 121 10 164 69 20 27 21 42 26 499
5 435 6 474 23 499 42 62 46 63 354 68 265 5 283 6 309 26 59 43 69 68 69 164
0 96 -10 121 -69 164 -27 20 -40 21 -484 23 -365 2 -463 0 -487 -11z"/>
<path d="M9215 3406 c-41 -18 -83 -69 -90 -109 -3 -18 -5 -145 -3 -284 3 -236
4 -253 24 -279 41 -56 67 -67 166 -74 147 -10 178 -41 188 -188 7 -99 18 -125
74 -166 23 -18 42 -21 116 -21 96 0 121 10 164 69 21 27 21 38 21 496 0 458 0
469 -21 496 -11 15 -33 37 -48 48 -26 20 -42 21 -294 23 -207 2 -274 0 -297
-11z"/>
<path d="M702 3029 c-75 -14 -150 -56 -204 -111 -60 -62 -95 -133 -109 -220
-6 -39 -9 -440 -7 -1033 3 -902 4 -973 21 -1015 45 -113 142 -209 250 -247 49
-17 115 -18 1057 -18 942 0 1008 1 1057 18 108 38 205 134 250 247 17 42 18
111 18 1060 l0 1015 -23 57 c-43 107 -123 186 -233 231 l-54 22 -990 2 c-545
0 -1009 -3 -1033 -8z m1796 -400 c70 -34 105 -71 139 -145 l24 -52 -3 -733 -3
-734 -22 -41 c-36 -67 -70 -101 -135 -133 l-61 -31 -727 0 -727 0 -61 31 c-65
32 -99 66 -135 133 l-22 41 -3 725 c-2 516 0 737 8 766 19 67 77 134 149 171
l63 33 727 0 728 0 61 -31z"/>
<path d="M1245 2266 c-47 -20 -93 -79 -100 -128 -3 -24 -5 -233 -3 -465 l3
-421 30 -38 c63 -77 45 -75 546 -72 l446 3 37 29 c75 57 76 58 76 531 0 246
-4 435 -10 455 -11 41 -61 94 -103 109 -44 17 -883 14 -922 -3z"/>
<path d="M4275 2646 c-42 -18 -83 -69 -91 -112 -11 -59 0 -152 22 -181 43 -58
68 -68 164 -68 96 0 121 10 164 69 18 23 21 42 21 116 0 96 -10 121 -69 164
-35 26 -164 34 -211 12z"/>
<path d="M4275 1886 c-41 -18 -83 -69 -90 -109 -3 -18 -5 -231 -3 -474 3 -428
4 -442 24 -469 43 -59 68 -69 164 -69 96 0 121 10 164 69 21 27 21 38 21 496
0 458 0 469 -21 496 -41 55 -70 69 -152 72 -49 1 -88 -3 -107 -12z"/>
<path d="M3515 1506 c-41 -18 -83 -69 -90 -109 -3 -18 -5 -231 -3 -474 3 -428
4 -442 24 -469 43 -59 68 -69 164 -69 96 0 121 10 164 69 21 27 21 38 21 496
0 458 0 469 -21 496 -41 55 -70 69 -152 72 -49 1 -88 -3 -107 -12z"/>
<path d="M9595 1506 c-42 -18 -83 -69 -91 -112 -11 -59 0 -152 22 -181 43 -58
68 -68 164 -68 74 0 93 3 116 21 59 43 69 68 69 164 0 96 -10 121 -69 164 -35
26 -164 34 -211 12z"/>
<path d="M5415 1126 c-41 -18 -83 -69 -90 -109 -3 -18 -5 -145 -3 -284 3 -236
4 -253 24 -279 43 -59 68 -69 164 -69 96 0 121 10 164 69 20 26 21 40 21 306
0 266 -1 280 -21 306 -41 55 -70 69 -152 72 -49 1 -88 -3 -107 -12z"/>
<path d="M9215 1126 c-41 -18 -83 -69 -90 -109 -3 -18 -5 -145 -3 -284 3 -277
3 -276 72 -327 26 -20 40 -21 306 -21 266 0 280 1 306 21 59 43 69 68 69 164
0 74 -3 93 -21 116 -41 55 -68 68 -162 74 -149 10 -182 42 -192 188 -7 99 -18
125 -74 166 -35 26 -164 34 -211 12z"/>
</g>
</svg>
