<svg width="300" height="300" viewBox="0 0 300 300" fill="none" xmlns="http://www.w3.org/2000/svg">
<path d="M249.37 26.3424C249.37 26.3424 219.898 -6.2976 177.404 2.4288C134.911 11.1552 114.298 49.6224 88.2978 74.8416C74.6808 88.0416 55.8553 91.488 40.1617 101.117C-10.0256 131.894 -9.57449 212.822 24.4681 246.854C53.8978 276.317 93.0978 283.142 145.983 269.126C198.868 255.11 236.536 247.315 272.86 195.274C309.183 143.232 285.37 70.2432 249.37 26.3424Z" fill="#213555"/>
<path opacity="0.7" d="M249.37 26.3424C249.37 26.3424 219.898 -6.2976 177.404 2.4288C134.911 11.1552 114.298 49.6224 88.2978 74.8416C74.6808 88.0416 55.8553 91.488 40.1617 101.117C-10.0256 131.894 -9.57449 212.822 24.4681 246.854C53.8978 276.317 93.0978 283.142 145.983 269.126C198.868 255.11 236.536 247.315 272.86 195.274C309.183 143.232 285.37 70.2432 249.37 26.3424Z" fill="white"/>
<mask id="mask0_423_215" style="mask-type:luminance" maskUnits="userSpaceOnUse" x="4" y="145" width="49" height="107">
<path d="M52.3744 145.786H4.16168V251.846H52.3744V145.786Z" fill="white"/>
</mask>
<g mask="url(#mask0_423_215)">
<path d="M16.8085 254.986H44.3744C44.9026 254.986 45.4091 254.749 45.7826 254.328C46.1561 253.906 46.3659 253.335 46.3659 252.739C46.3659 252.143 46.1561 251.572 45.7826 251.151C45.4091 250.729 44.9026 250.493 44.3744 250.493H16.8085C16.0836 250.492 15.3686 250.303 14.7191 249.94C14.0696 249.577 13.503 249.05 13.0633 248.4C12.6237 247.75 12.3229 246.994 12.1842 246.192C12.0455 245.389 12.0728 244.562 12.2638 243.773L22.0425 204.24C22.1124 203.955 22.1318 203.657 22.0997 203.364C22.0675 203.071 21.9845 202.787 21.8553 202.53C21.7261 202.273 21.5532 202.047 21.3466 201.865C21.14 201.683 20.9036 201.549 20.651 201.47C20.3984 201.392 20.1346 201.37 19.8745 201.406C19.6144 201.442 19.3632 201.536 19.1352 201.682C18.9072 201.827 18.7069 202.022 18.5457 202.255C18.3845 202.488 18.2655 202.755 18.1957 203.04L8.41697 242.534C8.04919 243.995 7.98717 245.532 8.23581 247.024C8.48446 248.516 9.03696 249.922 9.84977 251.132C10.6626 252.342 11.7135 253.323 12.9196 253.996C14.1257 254.67 15.4541 255.019 16.7999 255.014L16.8085 254.986Z" fill="white" stroke="#213555" stroke-linecap="round" stroke-linejoin="round"/>
<path d="M29.8725 243.255L36.1171 242.41L26.4373 151.383L20.1927 152.228L29.8725 243.255Z" fill="white" stroke="#213555" stroke-linecap="round" stroke-linejoin="round"/>
<path d="M20.2127 152.227C20.2127 152.227 9.14887 196.848 29.8893 243.254L20.2127 152.227Z" fill="#213555" stroke="#213555" stroke-linecap="round" stroke-linejoin="round"/>
</g>
<path d="M283.634 189.197C283.677 189.197 284.485 185.885 284.485 185.674C284.791 183.168 284.085 178.118 281.821 176.88C281.441 176.687 281.028 176.587 280.611 176.586C280.193 176.585 279.78 176.684 279.399 176.875C279.018 177.066 278.676 177.345 278.397 177.695C278.118 178.045 277.907 178.458 277.779 178.906C277.166 180.826 277.94 183.091 278.851 184.666C279.898 186.538 283.634 189.197 283.634 189.197Z" fill="#213555"/>
<path d="M239.021 188.102C240.826 188.986 245.234 188.88 245.234 188.88C245.234 188.88 244.289 185.616 244.204 185.424C243.234 183.139 240.179 179.366 237.685 179.75C237.272 179.825 236.878 179.997 236.529 180.255C236.18 180.514 235.883 180.853 235.657 181.25C235.432 181.647 235.284 182.093 235.223 182.56C235.162 183.026 235.189 183.502 235.302 183.955C235.711 185.894 237.481 187.344 239.021 188.102Z" fill="#213555"/>
<path d="M237.447 248.4C237.365 248.725 237.345 249.065 237.388 249.4C237.431 249.734 237.537 250.054 237.698 250.338C237.858 250.623 238.071 250.866 238.321 251.052C238.571 251.237 238.853 251.361 239.149 251.414C239.793 251.475 240.441 251.377 241.048 251.127C241.655 250.876 242.206 250.48 242.664 249.965C243.58 248.767 244.326 247.417 244.877 245.962C245.472 246.192 246.077 246.422 246.647 246.682C247.03 246.864 247.413 247.008 247.796 247.219L248.919 247.805C249.617 248.218 250.349 248.63 251.021 249.043C251.498 249.322 251.94 249.6 252.391 249.888C251.796 249.686 250.613 249.341 250.511 249.322C248.928 249.062 245.719 249.61 244.928 251.424C244.855 251.599 244.8 251.782 244.766 251.971H251.489C252.102 251.107 252.596 250.253 252.698 250.051C253.447 250.522 254.162 251.011 254.834 251.434L255.6 251.952H257.753C257.021 251.462 256.23 250.944 255.362 250.397C254.494 249.85 253.796 249.437 252.962 248.928C253.246 247.957 253.485 246.97 253.677 245.971C255.086 245.726 256.458 245.26 257.753 244.589C258.145 245.443 258.519 246.278 258.86 247.066C259.66 248.909 260.323 250.57 260.86 251.952H262.145C261.54 250.464 260.766 248.621 259.813 246.528C259.421 245.664 258.962 244.752 258.528 243.811C258.672 243.677 259.379 243.034 260.128 242.275L260.749 242.189C260.979 243.504 261.2 244.79 261.387 246.029C261.728 248.218 262 250.214 262.238 251.981H263.864C263.6 250.138 263.277 248.035 262.868 245.722C262.63 244.387 262.357 242.957 262.068 241.498C263.233 240.964 264.369 240.355 265.472 239.674C266.757 241.248 270.051 243.082 270.477 243.322C270.034 244.56 269.583 245.77 269.149 246.902C268.425 248.774 267.736 250.474 267.098 251.981H268.851C269.379 250.637 269.94 249.158 270.553 247.555C271.013 246.288 271.481 244.934 271.949 243.533C272.425 243.648 276.289 244.493 278.094 244.07C279.728 243.658 281.711 242.611 282.443 240.787C282.628 240.365 282.733 239.904 282.75 239.433C282.767 238.962 282.695 238.492 282.54 238.055C282.385 237.617 282.15 237.221 281.85 236.893C281.55 236.565 281.192 236.312 280.8 236.15C278.417 235.248 274.783 238.301 273.447 240.336C273.37 240.461 272.647 241.872 272.204 242.765C272.391 242.198 272.587 241.642 272.774 241.046C273.149 239.885 273.498 238.704 273.881 237.437C274.043 236.813 274.213 236.189 274.374 235.517C274.536 234.845 274.672 234.211 274.825 233.597C275.149 232.061 275.413 230.486 275.677 228.893C276.587 229.267 279.83 230.544 281.506 230.41C283.183 230.275 285.277 229.584 286.247 227.904C286.486 227.519 286.651 227.081 286.731 226.62C286.811 226.158 286.803 225.683 286.709 225.225C286.615 224.766 286.437 224.336 286.186 223.96C285.934 223.585 285.616 223.274 285.251 223.046C283.013 221.741 279.013 224.141 277.421 225.926C277.319 226.032 276.306 227.462 275.762 228.259C275.898 227.299 276.034 226.339 276.145 225.379C276.451 222.566 276.689 219.715 276.928 216.864C277.004 215.99 277.089 215.126 277.174 214.253C277.498 214.387 281.319 216 283.2 215.846C284.902 215.712 286.97 215.021 287.94 213.35C288.18 212.964 288.344 212.525 288.423 212.062C288.503 211.6 288.494 211.123 288.4 210.664C288.305 210.205 288.126 209.774 287.874 209.398C287.621 209.022 287.302 208.711 286.936 208.483C284.706 207.187 280.698 209.578 279.106 211.363C278.987 211.498 277.532 213.552 277.183 214.099C277.362 212.179 277.557 210.259 277.821 208.406C278.155 205.877 278.639 203.375 279.268 200.918C279.421 200.986 283.404 202.675 285.328 202.522C287.03 202.397 289.098 201.696 290.068 200.026C290.308 199.64 290.473 199.202 290.552 198.739C290.632 198.277 290.625 197.801 290.531 197.342C290.437 196.883 290.259 196.451 290.007 196.075C289.756 195.699 289.438 195.387 289.072 195.158C286.834 193.862 282.834 196.253 281.243 198.038C281.132 198.163 280.025 199.718 279.54 200.477L279.413 200.41C280.1 197.955 280.98 195.574 282.043 193.296C282.621 192.038 283.225 190.867 283.838 189.744C284.553 190.147 287.838 191.942 289.583 192.019C291.328 192.096 293.413 191.664 294.536 190.099C294.812 189.746 295.018 189.331 295.143 188.882C295.267 188.433 295.306 187.959 295.257 187.492C295.208 187.024 295.072 186.574 294.858 186.17C294.645 185.765 294.358 185.417 294.017 185.146C291.923 183.571 287.711 185.462 285.957 187.066C285.855 187.152 284.97 188.141 284.34 188.88C284.621 188.371 284.911 187.853 285.191 187.373C286.238 185.587 287.302 184.032 288.247 182.65C288.791 181.872 289.302 181.19 289.779 180.547C290.63 180.547 294.221 180.403 295.779 179.587C297.336 178.771 299.03 177.283 299.396 175.325C299.496 174.867 299.51 174.391 299.437 173.927C299.364 173.463 299.205 173.021 298.971 172.631C298.736 172.241 298.432 171.911 298.077 171.662C297.722 171.413 297.325 171.251 296.911 171.187C294.408 170.89 291.438 174.749 290.528 177.062C290.451 177.264 289.532 180.547 289.574 180.547H289.634C289.157 181.152 288.655 181.805 288.119 182.534C287.149 183.888 286.051 185.414 284.962 187.2C283.771 189.09 282.677 191.055 281.685 193.085C280.568 195.358 279.631 197.739 278.885 200.198V200.285C278.885 199.459 278.885 197.136 278.885 196.954C278.596 194.448 276.732 189.782 274.255 189.274C273.845 189.205 273.427 189.233 273.027 189.358C272.627 189.482 272.255 189.7 271.934 189.997C271.614 190.293 271.352 190.662 271.165 191.08C270.978 191.498 270.871 191.955 270.851 192.422C270.706 194.419 271.991 196.416 273.243 197.674C274.647 199.094 278.562 200.467 278.877 200.554C278.175 203.069 277.624 205.635 277.225 208.234C276.979 209.75 276.783 211.286 276.596 212.832C276.596 212.112 276.596 211.469 276.596 211.382C276.306 208.867 274.434 204.211 271.966 203.702C271.555 203.633 271.136 203.662 270.736 203.788C270.335 203.913 269.963 204.131 269.642 204.429C269.321 204.726 269.059 205.097 268.873 205.516C268.687 205.934 268.581 206.393 268.562 206.861C268.417 208.848 269.702 210.845 270.945 212.112C272.187 213.379 275.532 214.637 276.417 214.992L276.213 216.768C275.915 219.648 275.625 222.451 275.268 225.226C275.14 226.186 274.979 227.146 274.825 228.106C274.825 227.472 274.825 226.934 274.825 226.848C274.536 224.342 272.672 219.677 270.196 219.168C269.786 219.099 269.367 219.128 268.967 219.252C268.568 219.377 268.195 219.594 267.875 219.891C267.554 220.188 267.292 220.557 267.105 220.975C266.919 221.392 266.812 221.85 266.791 222.317C266.647 224.314 267.932 226.31 269.183 227.568C270.434 228.826 273.438 229.968 274.485 230.352C274.306 231.312 274.119 232.272 273.906 233.232C273.745 233.866 273.625 234.49 273.438 235.152L272.902 237.014C272.528 238.186 272.145 239.395 271.753 240.528C271.481 241.315 271.208 242.064 270.902 242.813C271.038 241.853 271.268 239.933 271.268 239.77C271.241 237.543 270.708 235.361 269.719 233.434C269.731 233.186 269.716 232.938 269.677 232.694C269.629 232.224 269.493 231.771 269.279 231.364C269.065 230.957 268.776 230.606 268.433 230.334C268.09 230.061 267.699 229.875 267.287 229.785C266.875 229.696 266.451 229.706 266.043 229.814C264.136 230.39 262.783 233.472 262.23 235.997C262.082 235.679 261.876 235.4 261.625 235.18C261.374 234.96 261.084 234.803 260.774 234.72L260.391 233.318C260.238 232.685 260 232.042 259.813 231.398C259.328 229.92 258.774 228.442 258.196 226.973C259.132 226.723 262.451 225.763 263.796 224.602C265.14 223.44 266.536 221.568 266.528 219.571C266.539 219.1 266.461 218.631 266.301 218.196C266.141 217.761 265.902 217.368 265.598 217.044C265.295 216.72 264.934 216.471 264.54 216.315C264.146 216.158 263.727 216.097 263.311 216.134C260.817 216.442 258.647 220.934 258.204 223.411C258.204 223.565 258.034 225.389 257.966 226.387C257.608 225.504 257.26 224.621 256.868 223.747C255.753 221.203 254.553 218.678 253.37 216.154C253.004 215.376 252.647 214.598 252.289 213.821C252.63 213.734 256.604 212.698 258.102 211.402C259.43 210.25 260.834 208.368 260.825 206.371C260.838 205.9 260.762 205.432 260.602 204.997C260.443 204.561 260.205 204.169 259.902 203.844C259.599 203.52 259.239 203.271 258.845 203.115C258.452 202.958 258.033 202.896 257.617 202.934C255.115 203.242 252.945 207.734 252.511 210.211C252.511 210.394 252.264 213.014 252.238 213.686C251.455 211.978 250.681 210.259 249.983 208.541C249.032 206.221 248.213 203.836 247.532 201.398C247.694 201.398 251.847 200.294 253.379 198.96C254.706 197.818 256.119 195.926 256.102 193.93C256.114 193.459 256.038 192.991 255.879 192.555C255.72 192.12 255.481 191.727 255.178 191.403C254.876 191.078 254.516 190.83 254.122 190.673C253.728 190.516 253.31 190.455 252.894 190.493C250.391 190.8 248.221 195.293 247.787 197.77C247.787 197.933 247.6 199.93 247.54 200.88H247.396C246.772 198.403 246.345 195.868 246.119 193.306C245.983 191.904 245.915 190.541 245.881 189.226C246.672 189.12 250.281 188.573 251.779 187.555C253.277 186.538 254.8 184.877 254.979 182.89C255.037 182.421 255.008 181.944 254.893 181.489C254.777 181.035 254.578 180.612 254.308 180.25C254.039 179.888 253.704 179.594 253.327 179.387C252.95 179.18 252.538 179.065 252.119 179.05C249.608 179.05 247.013 183.245 246.323 185.654C246.323 185.779 246.034 187.162 245.864 188.17C245.864 187.574 245.864 186.96 245.864 186.384C245.864 184.243 245.991 182.285 246.111 180.547C246.187 179.587 246.272 178.627 246.357 177.83C247.081 177.264 249.991 174.95 250.885 173.299C251.779 171.648 252.468 169.354 251.821 167.491C251.684 167.045 251.465 166.637 251.178 166.293C250.89 165.949 250.542 165.678 250.156 165.497C249.769 165.315 249.353 165.228 248.935 165.241C248.516 165.254 248.105 165.366 247.728 165.571C245.489 166.867 244.902 171.936 245.277 174.432C245.277 174.653 246.128 177.965 246.187 177.936H246.23C246.136 178.733 246.034 179.597 245.949 180.538C245.796 182.275 245.634 184.234 245.591 186.394C245.519 188.712 245.568 191.032 245.736 193.344C245.915 195.937 246.297 198.507 246.877 201.024V201.11C246.485 200.41 245.319 198.49 245.174 198.355C243.779 196.541 240.255 193.997 237.915 194.688C237.534 194.426 237.088 194.312 236.644 194.362C236.2 194.413 235.783 194.625 235.455 194.966C234.145 196.358 234.604 199.968 235.319 201.6C235.379 201.744 236.536 203.827 236.562 203.798C236.63 204.362 236.715 204.976 236.817 205.642C237.013 206.87 237.251 208.262 237.6 209.75C237.955 211.355 238.393 212.936 238.911 214.483C239.488 216.224 240.2 217.904 241.038 219.504V219.552C240.638 219.158 239.506 218.102 239.413 218.035C238.068 217.075 234.962 216.029 233.566 217.306C233.34 217.524 233.158 217.794 233.03 218.098C232.903 218.401 232.833 218.732 232.826 219.067C232.819 219.403 232.874 219.737 232.988 220.047C233.103 220.357 233.273 220.636 233.489 220.867C233.998 221.316 234.588 221.635 235.217 221.801C235.846 221.967 236.499 221.976 237.132 221.827C238.468 221.616 240.945 219.907 241.14 219.715C242.033 221.315 243.017 222.848 244.085 224.304C244.706 225.158 245.353 225.994 246.008 226.819L245.294 226.166C243.949 225.206 240.843 224.16 239.447 225.437C239.22 225.656 239.038 225.926 238.91 226.23C238.783 226.533 238.713 226.864 238.707 227.2C238.701 227.537 238.757 227.87 238.873 228.18C238.989 228.49 239.161 228.769 239.379 228.998C239.886 229.447 240.474 229.766 241.102 229.932C241.729 230.098 242.382 230.107 243.013 229.958C244.399 229.508 245.716 228.821 246.919 227.923L247.685 228.883C248.911 230.381 250.145 231.878 251.319 233.386C251.557 233.693 251.779 234.01 252.008 234.346L251.864 234.442C250.511 233.482 247.43 232.464 246.043 233.731C245.816 233.951 245.633 234.222 245.505 234.527C245.378 234.831 245.309 235.163 245.302 235.5C245.296 235.837 245.352 236.171 245.468 236.482C245.584 236.792 245.756 237.072 245.974 237.302C246.482 237.75 247.07 238.067 247.698 238.233C248.325 238.399 248.977 238.409 249.608 238.262C249.914 238.206 250.214 238.113 250.502 237.984C250.535 238.186 250.581 238.384 250.638 238.579C250.806 239.085 251.061 239.548 251.387 239.942C250.96 239.875 250.524 239.962 250.142 240.189C249.76 240.416 249.452 240.773 249.26 241.21C248.485 243.034 250.111 246.211 251.251 247.459L252.672 248.669L251.642 248.064C250.936 247.651 250.23 247.277 249.464 246.854L248.332 246.298C247.949 246.096 247.532 245.942 247.132 245.77C246.196 245.376 245.234 245.03 244.247 244.704C244.939 243.288 245.433 241.759 245.711 240.173C245.77 238.819 245.523 237.082 244.553 236.16C244.331 235.936 244.069 235.766 243.785 235.663C243.502 235.56 243.202 235.524 242.905 235.56C242.608 235.595 242.322 235.7 242.063 235.868C241.805 236.036 241.58 236.263 241.404 236.534C240.391 238.214 241.549 241.622 242.536 243.053C242.596 243.139 243.387 244.08 243.855 244.579C243.268 244.387 242.681 244.195 242.077 244.022C240.374 243.533 238.562 243.062 236.791 242.65L235.174 242.227C235.285 241.987 236.63 239.069 236.698 237.542C236.776 236.82 236.712 236.088 236.512 235.396C236.312 234.705 235.981 234.071 235.54 233.539C235.318 233.315 235.057 233.146 234.773 233.042C234.489 232.939 234.189 232.904 233.892 232.939C233.596 232.974 233.309 233.079 233.05 233.247C232.792 233.415 232.567 233.642 232.391 233.914C231.379 235.584 232.536 239.002 233.523 240.432C233.6 240.538 234.757 241.882 235.072 242.208C233.881 241.891 232.706 241.574 231.549 241.2C229.988 240.711 228.459 240.105 226.97 239.386C227.021 239.27 228.434 236.237 228.511 234.682C228.57 233.328 228.323 231.59 227.353 230.669C227.131 230.444 226.869 230.275 226.585 230.172C226.302 230.068 226.002 230.033 225.705 230.068C225.408 230.104 225.122 230.209 224.863 230.377C224.605 230.544 224.38 230.772 224.204 231.043C223.191 232.723 224.349 236.131 225.336 237.562C225.396 237.658 226.281 238.685 226.715 239.155L226.655 239.251C225.169 238.483 223.746 237.571 222.4 236.525C221.66 235.958 220.979 235.363 220.323 234.778C221.161 233.431 221.812 231.948 222.255 230.381C222.402 229.671 222.41 228.934 222.278 228.221C222.145 227.508 221.876 226.836 221.489 226.253C221.291 226.002 221.047 225.802 220.775 225.665C220.503 225.528 220.209 225.457 219.911 225.457C219.613 225.457 219.318 225.528 219.046 225.665C218.774 225.802 218.531 226.002 218.332 226.253C217.166 227.789 217.983 231.322 218.817 232.867C218.868 232.944 219.413 233.741 219.821 234.317L218.97 233.501C217.94 232.541 217.055 231.523 216.272 230.621C215.83 230.122 215.421 229.661 215.081 229.21C215.275 227.589 215.246 225.944 214.996 224.333C214.621 223.046 213.83 221.53 212.638 221.069C212.359 220.95 212.061 220.899 211.763 220.918C211.465 220.937 211.174 221.026 210.909 221.18C210.643 221.334 210.41 221.549 210.222 221.811C210.035 222.072 209.898 222.376 209.821 222.701C209.413 224.669 211.583 227.386 212.953 228.317C213.072 228.394 215.064 229.411 215.064 229.373C215.396 229.805 215.77 230.256 216.179 230.755C216.945 231.648 217.821 232.675 218.834 233.635C219.915 234.753 221.052 235.802 222.238 236.774C223.577 237.876 225.002 238.84 226.494 239.654H226.545C226.025 239.578 224.562 239.395 224.451 239.405C222.843 239.405 219.753 240.499 219.217 242.429C219.135 242.754 219.115 243.095 219.158 243.43C219.201 243.765 219.307 244.085 219.467 244.371C219.628 244.656 219.841 244.9 220.091 245.087C220.341 245.273 220.623 245.398 220.919 245.453C221.564 245.512 222.212 245.412 222.819 245.16C223.426 244.908 223.977 244.51 224.434 243.994C225.447 243.034 226.655 239.981 226.749 239.741C228.273 240.525 229.843 241.192 231.447 241.738C232.383 242.064 233.328 242.352 234.281 242.64L233.37 242.534C231.762 242.534 228.672 243.638 228.136 245.568C228.054 245.893 228.034 246.233 228.077 246.568C228.121 246.902 228.226 247.222 228.387 247.506C228.548 247.791 228.76 248.034 229.01 248.22C229.261 248.405 229.543 248.529 229.838 248.582C230.482 248.643 231.13 248.545 231.737 248.295C232.344 248.044 232.896 247.648 233.353 247.133C234.289 245.894 235.052 244.502 235.617 243.005L236.715 243.322C238.477 243.811 240.238 244.282 241.949 244.819C242.553 245.011 243.14 245.213 243.736 245.424L242.945 245.338C241.072 245.376 237.983 246.461 237.447 248.4ZM256.272 242.64L256.128 242.506H256.74L256.843 242.707C257.098 243.235 257.328 243.744 257.566 244.262C257.166 243.725 256.349 242.698 256.272 242.621V242.64ZM257.838 242.506H257.983C258.068 242.794 258.17 243.101 258.247 243.35L257.838 242.506ZM257.66 229.45C257.94 230.256 258.221 231.053 258.46 231.85C258.638 232.483 258.851 233.069 258.996 233.722C259.089 234.115 259.191 234.499 259.285 234.883L259.098 234.979C258.531 235.429 258.122 236.088 257.94 236.842C256.873 235.617 255.559 234.702 254.111 234.173C255.059 233.569 255.92 232.805 256.664 231.907C257.142 231.174 257.482 230.338 257.66 229.45ZM237.6 209.693C237.225 208.214 236.962 206.813 236.749 205.622C236.63 204.931 236.536 204.298 236.451 203.702C236.681 203.386 237.302 202.483 237.872 201.533C238.726 202.023 239.646 202.348 240.596 202.493C242.46 202.8 246.4 201.533 246.715 201.408C247.363 203.948 248.159 206.436 249.098 208.858C249.643 210.278 250.23 211.68 250.8 213.082C250.443 212.486 250.119 211.958 250.068 211.891C248.596 209.971 244.766 207.254 242.451 208.358L242.383 208.406C243.023 207.509 243.328 206.366 243.234 205.219C243.192 204.886 243.088 204.567 242.929 204.282C242.77 203.997 242.56 203.753 242.311 203.567C242.063 203.38 241.783 203.254 241.489 203.198C241.194 203.142 240.893 203.157 240.604 203.242C238.902 203.789 237.83 207.245 237.779 209.059C237.779 209.155 237.847 210.154 237.898 210.883C237.779 210.499 237.651 210.086 237.557 209.693H237.6ZM240.919 217.046C240.919 217.162 241.166 218.573 241.294 219.235L241.2 219.283C240.317 217.724 239.56 216.079 238.936 214.368C238.596 213.408 238.315 212.515 238.085 211.613C239.102 211.132 240.084 210.56 241.021 209.904C240.808 210.415 240.705 210.975 240.721 211.539C240.737 212.103 240.872 212.655 241.115 213.149C241.187 213.285 241.267 213.417 241.353 213.542C241.003 214.667 240.841 215.855 240.877 217.046H240.919ZM244.323 223.949C243.262 222.569 242.281 221.114 241.387 219.59C241.489 219.523 244.162 217.872 244.979 216.624C245.106 216.422 245.234 216.202 245.353 215.971L245.711 216.038C247.413 216.317 250.766 215.299 251.668 215.011C251.898 215.549 252.136 216.086 252.366 216.614C253.506 219.178 254.655 221.731 255.711 224.294C255.991 224.966 256.247 225.638 256.502 226.31L256.298 226.214L256.128 225.955C254.787 224.334 253.103 223.125 251.234 222.442C251.517 221.693 251.577 220.861 251.404 220.07C251.334 219.736 251.201 219.422 251.014 219.15C250.826 218.879 250.589 218.656 250.318 218.497C250.048 218.339 249.75 218.248 249.445 218.231C249.141 218.214 248.836 218.272 248.553 218.4C246.851 219.168 246.187 222.73 246.306 224.534C246.306 224.669 246.63 226.512 246.732 226.982C245.889 225.984 245.064 224.976 244.281 223.949H244.323ZM251.719 232.858C250.511 231.36 249.243 229.891 247.991 228.422C247.6 227.971 247.225 227.52 246.843 227.059L247.089 226.906C247.089 226.992 247.149 227.078 247.183 227.155C248.034 228.912 250.085 229.776 251.745 230.035C252.082 230.07 252.421 230.07 252.757 230.035C252.613 230.772 252.553 231.527 252.579 232.282C252.579 232.378 252.74 233.242 252.868 233.971H252.655C252.306 233.654 252 233.251 251.702 232.858H251.719Z" fill="#213555"/>
<path d="M261.728 240.038C261.728 239.981 261.787 239.914 261.813 239.846C261.813 240.144 261.813 240.442 261.864 240.691C261.821 240.48 261.77 240.259 261.728 240.038Z" fill="#213555"/>
<path d="M233.37 212.285C234.766 212.496 237.77 211.43 237.77 211.43C237.77 211.43 236.553 209.405 236.459 209.29C235.396 207.936 232.638 206.026 230.996 206.842C230.726 206.985 230.486 207.191 230.291 207.446C230.096 207.701 229.951 207.999 229.865 208.322C229.78 208.644 229.755 208.983 229.793 209.317C229.83 209.651 229.93 209.972 230.085 210.259C230.47 210.845 230.963 211.33 231.53 211.68C232.097 212.029 232.725 212.236 233.37 212.285Z" fill="#213555"/>
<path d="M217.66 233.846C216.111 233.386 212.877 233.51 211.906 235.21C211.751 235.497 211.652 235.818 211.614 236.152C211.576 236.486 211.601 236.825 211.687 237.147C211.773 237.469 211.918 237.768 212.112 238.023C212.307 238.278 212.547 238.484 212.817 238.627C213.949 239.28 215.464 238.858 216.545 238.272C217.813 237.581 219.804 234.826 219.804 234.826C219.804 234.826 217.796 233.894 217.66 233.846Z" fill="#213555"/>
<path d="M0.64679 252.154H285.089" stroke="#213555" stroke-linecap="round" stroke-linejoin="round"/>
<path d="M116.834 257.606L83.8213 280.166L147.311 284.112L167.311 258.326L116.834 257.606Z" fill="white" stroke="#213555" stroke-linecap="round" stroke-linejoin="round"/>
<path d="M151.277 262.464C151.277 262.464 138.34 265.536 144.698 267.59C151.055 269.645 159.677 264.768 156.043 264.768C152.409 264.768 148.102 264.259 146.511 265.536" stroke="#213555" stroke-linecap="round" stroke-linejoin="round"/>
<path d="M143.072 269.126C143.072 269.126 139.668 273.475 130.587 276.288" stroke="#213555" stroke-linecap="round" stroke-linejoin="round"/>
<path d="M133.311 273.734L129.004 276.806H136.715" stroke="#213555" stroke-linecap="round" stroke-linejoin="round"/>
<path d="M121.489 272.966C121.489 272.966 105.821 273.734 112.179 278.083C118.536 282.432 126.477 278.342 125.574 276.288C124.672 274.234 113.319 272.448 114.681 276.038C116.043 279.629 121.03 277.315 121.03 277.315" stroke="#213555" stroke-linecap="round" stroke-linejoin="round"/>
<path d="M110.162 270.144L114.017 268.358L105.396 275.779" stroke="#213555" stroke-linecap="round" stroke-linejoin="round"/>
<path d="M114.025 268.358L113.345 270.912" stroke="#213555" stroke-linecap="round" stroke-linejoin="round"/>
<path d="M122.417 264.518L133.54 265.027" stroke="#213555" stroke-linecap="round" stroke-linejoin="round"/>
<path d="M123.098 261.955L135.353 262.723" stroke="#213555" stroke-linecap="round" stroke-linejoin="round"/>
<path d="M232.502 267.658L225.319 276.778L233.855 283.862L245.072 277.286L242.834 268.675L232.502 267.658Z" stroke="#213555" stroke-linecap="round" stroke-linejoin="round"/>
<path d="M232.502 267.658L239.242 277.286L233.855 283.862" stroke="#213555" stroke-linecap="round" stroke-linejoin="round"/>
<path d="M239.242 277.286L242.383 273.734L240.136 269.683L235.651 271.21" stroke="#213555" stroke-linecap="round" stroke-linejoin="round"/>
<path d="M225.319 276.778L225.566 263.683H235.319L241.915 268.867L232.451 277.92L225.319 276.778Z" fill="white" stroke="#213555" stroke-linecap="round" stroke-linejoin="round"/>
<path d="M258.689 283.872L252.221 292.08L259.906 298.464L270.008 292.531L267.991 284.784L258.689 283.872Z" stroke="#213555" stroke-linecap="round" stroke-linejoin="round"/>
<path d="M258.689 283.872L264.757 292.531L259.906 298.464" stroke="#213555" stroke-linecap="round" stroke-linejoin="round"/>
<path d="M264.757 292.531L267.583 289.344L265.566 285.696L261.523 287.059" stroke="#213555" stroke-linecap="round" stroke-linejoin="round"/>
<path d="M252.221 292.08L252.442 280.291H261.225L267.166 284.957L258.638 293.107L252.221 292.08Z" fill="white" stroke="#213555" stroke-linecap="round" stroke-linejoin="round"/>
<path d="M273.506 267.667L272.902 255.494L262.417 257.242L258.57 270.845L265.549 275.165L273.506 267.667Z" stroke="#213555" stroke-linecap="round" stroke-linejoin="round"/>
<path d="M273.506 267.667L262.715 266.198L262.417 257.242" stroke="#213555" stroke-linecap="round" stroke-linejoin="round"/>
<path d="M262.715 266.198L262.698 271.21L266.826 272.304L269.055 267.658" stroke="#213555" stroke-linecap="round" stroke-linejoin="round"/>
<path d="M272.902 255.494L280.911 264.97L273.992 272.726L266.077 274.301L267.123 260.342L272.902 255.494Z" fill="white" stroke="#213555" stroke-linecap="round" stroke-linejoin="round"/>
<path d="M113.243 176.448H190.323C194.235 176.448 197.986 178.201 200.752 181.321C203.518 184.441 205.072 188.672 205.072 193.085V252.144H98.5106V193.085C98.5106 188.676 100.062 184.447 102.824 181.328C105.587 178.208 109.334 176.453 113.243 176.448Z" fill="#213555"/>
<path d="M244.536 220.186C244.536 220.186 223.106 208.906 201.915 200.026C180.723 191.146 159.532 183.907 134.774 185.789C134.774 185.789 119.294 190.358 97.8638 202.714C76.4341 215.069 64.2979 226.08 57.3872 234.72C50.4766 243.36 49.7277 252.173 49.7277 252.173H74.6809L98.5787 241.978L101.404 252.173H201.2L198.817 236.602L218.34 245.462L244.536 220.186Z" fill="#213555"/>
<mask id="mask1_423_215" style="mask-type:luminance" maskUnits="userSpaceOnUse" x="49" y="185" width="196" height="68">
<path d="M244.536 220.186C244.536 220.186 223.106 208.906 201.915 200.026C180.723 191.146 159.532 183.907 134.774 185.789C134.774 185.789 119.294 190.358 97.8638 202.714C76.4341 215.069 64.2979 226.08 57.3872 234.72C50.4766 243.36 49.7277 252.173 49.7277 252.173H74.6809L98.5787 241.978L101.404 252.173H201.2L198.817 236.602L218.34 245.462L244.536 220.186Z" fill="white"/>
</mask>
<g mask="url(#mask1_423_215)">
<path opacity="0.2" d="M228.162 235.968L225.191 222.24C225.191 222.24 201.626 214.32 192.085 210.211C182.545 206.102 175.251 199.766 175.251 203.251C175.251 206.736 178.902 214.954 176.102 212.746C173.302 210.538 168.528 195.331 167.123 198.182C165.719 201.034 135.983 195.648 127.004 198.499C118.026 201.35 108.774 207.043 100.357 213.686C91.9404 220.33 83.2425 215.606 83.8042 218.438C84.3659 221.27 88.2894 226.349 88.2894 226.349C88.2894 226.349 77.9149 220.973 77.9149 225.715C77.9149 230.458 70.0596 238.378 70.0596 238.378L73.8808 252.154H74.6808L98.5787 241.958L101.404 252.154H201.2L198.817 236.582L218.34 245.443L228.162 235.968Z" fill="#213555"/>
</g>
<path d="M244.536 220.186C244.536 220.186 223.106 208.906 201.915 200.026C180.723 191.146 159.532 183.907 134.774 185.789C134.774 185.789 119.294 190.358 97.8638 202.714C76.4341 215.069 64.2979 226.08 57.3872 234.72C50.4766 243.36 49.7277 252.173 49.7277 252.173H74.6809L98.5787 241.978L101.404 252.173H201.2L198.817 236.602L218.34 245.462L244.536 220.186Z" stroke="#213555" stroke-linecap="round" stroke-linejoin="round"/>
<path d="M124.536 198.163C124.536 198.163 119.711 203.722 120.136 213.734" stroke="#213555" stroke-linecap="round" stroke-linejoin="round"/>
<path d="M123.94 210.394C123.94 210.394 123.94 221.837 127.345 230.89" stroke="#213555" stroke-linecap="round" stroke-linejoin="round"/>
<path d="M161.974 202.291C161.974 202.291 167.889 214.685 168.315 226.128" stroke="#213555" stroke-linecap="round" stroke-linejoin="round"/>
<path d="M164.511 218.026C166.499 224.576 166.195 231.736 163.66 238.042" stroke="#213555" stroke-linecap="round" stroke-linejoin="round"/>
<path d="M92.6297 228.547L98.5702 241.949L85.2936 226.186" stroke="#213555" stroke-linecap="round" stroke-linejoin="round"/>
<path d="M198.068 236.611L182.366 234.221" stroke="#213555" stroke-linecap="round" stroke-linejoin="round"/>
<path d="M198.817 236.573L183.643 231.35" stroke="#213555" stroke-linecap="round" stroke-linejoin="round"/>
<path d="M124.536 198.163C124.536 198.163 126.238 214.013 128.34 222.605C130.443 231.197 132.596 233.347 132.596 233.347L139.021 227.174L140.723 232.81L148.383 236.304L154.34 229.046L152.911 223.411L163.123 229.046C163.123 229.046 162.17 212.131 159.072 199.776C155.974 187.421 145.966 182.88 137.149 186.614C131.938 188.804 127.507 192.861 124.536 198.163Z" fill="white"/>
<mask id="mask2_423_215" style="mask-type:luminance" maskUnits="userSpaceOnUse" x="124" y="185" width="40" height="52">
<path d="M124.536 198.163C124.536 198.163 126.238 214.013 128.34 222.605C130.443 231.197 132.596 233.347 132.596 233.347L139.021 227.174L140.723 232.81L148.383 236.304L154.34 229.046L152.911 223.411L163.123 229.046C163.123 229.046 162.17 212.131 159.072 199.776C155.974 187.421 145.966 182.88 137.149 186.614C131.938 188.804 127.507 192.861 124.536 198.163Z" fill="white"/>
</mask>
<g mask="url(#mask2_423_215)">
<path opacity="0.2" d="M124.536 198.163C124.536 198.163 126.238 214.013 128.34 222.605C130.443 231.197 132.596 233.347 132.596 233.347L139.021 227.174L140.723 232.81L148.383 236.304L154.34 229.046L152.911 223.411L163.123 229.046C163.123 229.046 162.17 212.131 159.072 199.776C155.974 187.421 145.966 182.88 137.149 186.614C131.938 188.804 127.507 192.861 124.536 198.163Z" fill="#213555"/>
</g>
<path d="M124.536 198.163C124.536 198.163 126.238 214.013 128.34 222.605C130.443 231.197 132.596 233.347 132.596 233.347L139.021 227.174L140.723 232.81L148.383 236.304L154.34 229.046L152.911 223.411L163.123 229.046C163.123 229.046 162.17 212.131 159.072 199.776C155.974 187.421 145.966 182.88 137.149 186.614C131.938 188.804 127.507 192.861 124.536 198.163Z" stroke="#213555" stroke-linecap="round" stroke-linejoin="round"/>
<mask id="mask3_423_215" style="mask-type:luminance" maskUnits="userSpaceOnUse" x="137" y="218" width="16" height="19">
<path d="M137.66 220.992C137.66 220.992 145.523 237.648 148.374 236.304C151.226 234.96 152.426 218.064 152.426 218.064C147.74 220.196 142.709 221.194 137.66 220.992Z" fill="white"/>
</mask>
<g mask="url(#mask3_423_215)">
<path d="M137.66 220.992C137.66 220.992 145.523 237.648 148.374 236.304C151.226 234.96 152.426 218.064 152.426 218.064C147.74 220.196 142.709 221.194 137.66 220.992Z" fill="#213555"/>
<path opacity="0.5" d="M137.66 220.992C137.66 220.992 145.523 237.648 148.374 236.304C151.226 234.96 152.426 218.064 152.426 218.064C147.74 220.196 142.709 221.194 137.66 220.992Z" fill="white"/>
</g>
<path d="M137.66 220.992C137.66 220.992 145.523 237.648 148.374 236.304C151.226 234.96 152.426 218.064 152.426 218.064C147.74 220.196 142.709 221.194 137.66 220.992Z" stroke="#213555" stroke-linecap="round" stroke-linejoin="round"/>
<path d="M216.877 243.158C215.957 241.44 218.74 232.934 219.294 230.88C221.796 221.693 225.43 211.555 234.417 209.136C243.404 206.717 251.387 217.594 252.519 223.651C253.651 229.709 245.166 238.33 241.455 241.2C237.745 244.07 222.536 253.363 216.877 243.158Z" fill="white" stroke="#213555" stroke-linecap="round" stroke-linejoin="round"/>
<path opacity="0.2" d="M250.851 224.477C250.851 224.477 243.515 214.81 238.936 214.368C234.357 213.926 229.277 218.717 223.319 228.96C217.362 239.203 217.157 246.931 220.664 245.482C224.17 244.032 250.57 233.117 250.851 224.477Z" fill="#213555"/>
<path d="M79.6255 244.128C79.6255 244.128 73.7191 230.362 69.6511 225.619C65.583 220.877 61.1404 224.88 52.1957 233.021C43.2511 241.162 42.6128 249.456 43.5319 251.827C44.4511 254.198 45.634 254.496 46.417 254.342C47.2 254.189 52.3234 242.65 59.0213 241.459C65.7192 240.269 77.5319 249.014 79.4979 247.536C81.4638 246.058 79.6255 244.128 79.6255 244.128Z" fill="white" stroke="#213555" stroke-linecap="round" stroke-linejoin="round"/>
<path opacity="0.2" d="M45.7446 248.803C45.7446 248.803 45.1744 245.597 48.2978 239.837C51.4212 234.077 59.3617 228.96 63.3361 228.96C67.3106 228.96 73.8298 237.283 74.6808 241.123C75.5319 244.963 60.1021 250.877 56.2383 251.357C52.3744 251.837 46.3149 253.277 45.7446 248.803Z" fill="#213555"/>
<path d="M103.149 249.12C103.149 249.12 66.2383 237.6 61.3872 234.941C56.5362 232.282 51.9319 236.861 47.9915 242.938C44.0511 249.014 44.034 259.258 45.1064 260.995C49.217 267.629 93.2766 262.33 93.2766 262.33L103.149 249.12Z" fill="white" stroke="#213555" stroke-linecap="round" stroke-linejoin="round"/>
<path d="M99.0723 249.84C99.0723 249.84 68.1532 242.16 59.2085 243.725C50.2638 245.29 44.8255 260.554 52.4 261.773C59.9744 262.992 96.3404 260.554 96.3404 260.554L99.0723 249.84Z" fill="#213555"/>
<path opacity="0.5" d="M99.0723 249.84C99.0723 249.84 68.1532 242.16 59.2085 243.725C50.2638 245.29 44.8255 260.554 52.4 261.773C59.9744 262.992 96.3404 260.554 96.3404 260.554L99.0723 249.84Z" fill="white"/>
<path d="M120.877 189.763C120.877 189.763 124.17 204.019 126.417 208.906C128.664 213.792 138.332 225.11 141.311 226.675C144.289 228.24 149.098 226.282 150.834 222.96C152.57 219.638 158.791 208.512 158.936 204C159.081 199.488 159.455 190.723 159.455 190.723C159.455 190.723 161.353 192.288 162.57 190.915C163.787 189.542 164.647 180.355 163.089 176.266C161.532 172.176 159.974 172.954 159.455 174.71C159.134 175.79 158.726 176.834 158.238 177.83C158.238 177.83 156.332 170.218 151.66 169.632C146.987 169.046 119.983 181.344 119.983 181.344L120.877 189.763Z" fill="white" stroke="#213555" stroke-linecap="round" stroke-linejoin="round"/>
<path d="M123.915 188.045C123.915 188.045 125.881 201.024 127.557 204.182C129.234 207.341 136.255 221.597 139.906 223.805C143.557 226.013 146.638 227.645 149.166 222.538C151.694 217.43 155.617 209.568 157.021 203.875C158.426 198.182 157.302 188.995 157.302 188.995C157.302 188.995 155.336 175.709 155.055 171.59C154.775 167.472 121.668 163.363 123.915 188.045Z" fill="#213555"/>
<path opacity="0.5" d="M123.915 188.045C123.915 188.045 125.881 201.024 127.557 204.182C129.234 207.341 136.255 221.597 139.906 223.805C143.557 226.013 146.638 227.645 149.166 222.538C151.694 217.43 155.617 209.568 157.021 203.875C158.426 198.182 157.302 188.995 157.302 188.995C157.302 188.995 155.336 175.709 155.055 171.59C154.775 167.472 121.668 163.363 123.915 188.045Z" fill="white"/>
<path d="M136.808 196.205C136.808 196.205 138.196 204.413 136.289 209.29C136.289 209.29 139.753 211.632 142.17 206.947" stroke="#213555" stroke-linecap="round" stroke-linejoin="round"/>
<path d="M143.038 196.205C141.455 192.758 144.417 184.771 153.081 192.691C153.081 192.691 144.077 188.64 143.038 196.205Z" fill="#213555"/>
<path d="M136.979 197.77C136.979 197.77 136.289 194.65 132.655 192.691C129.021 190.733 127.634 190.541 127.634 190.541C127.634 190.541 137.66 188.198 136.979 197.77Z" fill="#213555"/>
<path d="M143.906 213.782C143.906 213.782 148.408 213.197 151.353 207.149" stroke="#213555" stroke-linecap="round" stroke-linejoin="round"/>
<path d="M148.408 211.046C148.408 211.046 147.711 203.434 149.617 203.242C151.523 203.05 150.536 208.618 150.536 208.618L148.408 211.046Z" fill="#213555" stroke="#213555" stroke-linecap="round" stroke-linejoin="round"/>
<path d="M147.677 197.942C147.677 199.027 147.251 199.91 146.732 199.91C146.213 199.91 145.796 199.027 145.796 197.942C145.796 196.858 146.213 195.974 146.732 195.974C147.251 195.974 147.677 196.858 147.677 197.942Z" fill="#213555"/>
<path d="M134.255 198.701C134.255 199.786 133.83 200.621 133.311 200.621C132.792 200.621 132.375 199.738 132.375 198.701C132.375 197.664 132.792 196.733 133.311 196.733C133.83 196.733 134.255 197.606 134.255 198.701Z" fill="#213555"/>
<path d="M145.396 199.91C146.602 199.941 147.783 199.516 148.749 198.701" stroke="#213555" stroke-width="0.75" stroke-linecap="round" stroke-linejoin="round"/>
<path d="M131.609 200.438C132.765 200.831 134.005 200.777 135.132 200.285" stroke="#213555" stroke-width="0.75" stroke-linecap="round" stroke-linejoin="round"/>
<path d="M105.106 242.122C105.106 242.122 112.255 240.202 114.63 241.853C117.004 243.504 115.583 254.208 114.4 255.821C113.217 257.434 110.826 257.434 110.826 254.477C110.871 252.397 111.11 250.328 111.54 248.304H107.728L105.106 242.122Z" fill="white"/>
<mask id="mask4_423_215" style="mask-type:luminance" maskUnits="userSpaceOnUse" x="105" y="241" width="11" height="16">
<path d="M105.106 242.122C105.106 242.122 112.255 240.202 114.63 241.853C117.004 243.504 115.583 254.208 114.4 255.821C113.217 257.434 110.826 257.434 110.826 254.477C110.871 252.397 111.11 250.328 111.54 248.304H107.728L105.106 242.122Z" fill="white"/>
</mask>
<g mask="url(#mask4_423_215)">
<path d="M114.749 254.102C114.877 251.405 115.379 247.872 113.745 245.184C112.111 242.496 107.719 243.907 107.719 243.907L108.63 248.304H111.54C111.111 250.328 110.871 252.397 110.826 254.477C110.821 254.8 110.852 255.123 110.919 255.437C112.434 256.138 114.681 256.262 114.749 254.102Z" fill="#213555"/>
<path opacity="0.5" d="M114.749 254.102C114.877 251.405 115.379 247.872 113.745 245.184C112.111 242.496 107.719 243.907 107.719 243.907L108.63 248.304H111.54C111.111 250.328 110.871 252.397 110.826 254.477C110.821 254.8 110.852 255.123 110.919 255.437C112.434 256.138 114.681 256.262 114.749 254.102Z" fill="white"/>
</g>
<path d="M105.106 242.122C105.106 242.122 112.255 240.202 114.63 241.853C117.004 243.504 115.583 254.208 114.4 255.821C113.217 257.434 110.826 257.434 110.826 254.477C110.871 252.397 111.11 250.328 111.54 248.304H107.728L105.106 242.122Z" stroke="#213555" stroke-linecap="round" stroke-linejoin="round"/>
<path d="M116.732 262.944L117.328 266.41L114.987 263.894L97.8893 223.824L99.6425 222.883L116.732 262.944Z" fill="white" stroke="#213555" stroke-linecap="round" stroke-linejoin="round"/>
<path d="M114.987 263.894L117.328 266.41L116.732 262.944L116.63 262.694L114.97 263.846L114.987 263.894Z" fill="white" stroke="#213555" stroke-linecap="round" stroke-linejoin="round"/>
<path d="M99.6425 222.883L97.8893 223.824L99.4298 227.424L101.14 226.397L99.6425 222.883Z" fill="white" stroke="#213555" stroke-linecap="round" stroke-linejoin="round"/>
<path d="M101.064 245.347C100.103 247.678 98.9875 249.925 97.7276 252.067C96.2978 254.218 92.2553 257.712 91.7702 261.475C91.2851 265.238 98.1957 269.261 101.294 269.798C104.391 270.336 109.626 265.766 110.817 265.229C112.008 264.691 113.438 263.885 111.77 259.862C110.102 255.84 101.064 245.347 101.064 245.347Z" fill="white"/>
<mask id="mask5_423_215" style="mask-type:luminance" maskUnits="userSpaceOnUse" x="91" y="245" width="22" height="25">
<path d="M101.064 245.347C100.103 247.678 98.9875 249.925 97.7276 252.067C96.2978 254.218 92.2553 257.712 91.7702 261.475C91.2851 265.238 98.1957 269.261 101.294 269.798C104.391 270.336 109.626 265.766 110.817 265.229C112.008 264.691 113.438 263.885 111.77 259.862C110.102 255.84 101.064 245.347 101.064 245.347Z" fill="white"/>
</mask>
<g mask="url(#mask5_423_215)">
<path d="M111.779 259.853C110.928 257.712 107.923 253.747 105.328 250.502L103.957 250.762C103.957 250.762 100.706 254.429 100.706 256.877C100.706 259.325 103.957 262.694 103.957 262.694C103.957 262.694 99.0723 261.466 97.9999 263.309C97.8459 263.547 97.7367 263.817 97.6788 264.105C97.621 264.392 97.6158 264.689 97.6636 264.979C97.7115 265.268 97.8113 265.544 97.9569 265.788C98.1026 266.033 98.291 266.241 98.5106 266.4C96.8426 265.764 95.1095 265.37 93.3531 265.229C95.6 267.504 98.3289 269.088 101.277 269.827C104.374 270.365 109.608 265.795 110.8 265.258C111.991 264.72 113.447 263.875 111.779 259.853Z" fill="#213555"/>
<path opacity="0.5" d="M111.779 259.853C110.928 257.712 107.923 253.747 105.328 250.502L103.957 250.762C103.957 250.762 100.706 254.429 100.706 256.877C100.706 259.325 103.957 262.694 103.957 262.694C103.957 262.694 99.0723 261.466 97.9999 263.309C97.8459 263.547 97.7367 263.817 97.6788 264.105C97.621 264.392 97.6158 264.689 97.6636 264.979C97.7115 265.268 97.8113 265.544 97.9569 265.788C98.1026 266.033 98.291 266.241 98.5106 266.4C96.8426 265.764 95.1095 265.37 93.3531 265.229C95.6 267.504 98.3289 269.088 101.277 269.827C104.374 270.365 109.608 265.795 110.8 265.258C111.991 264.72 113.447 263.875 111.779 259.853Z" fill="white"/>
</g>
<path d="M101.064 245.347C100.103 247.678 98.9875 249.925 97.7276 252.067C96.2978 254.218 92.2553 257.712 91.7702 261.475C91.2851 265.238 98.1957 269.261 101.294 269.798C104.391 270.336 109.626 265.766 110.817 265.229C112.008 264.691 113.438 263.885 111.77 259.862C110.102 255.84 101.064 245.347 101.064 245.347Z" stroke="#213555" stroke-linecap="round" stroke-linejoin="round"/>
<path d="M101.064 240.768C101.461 240.389 101.929 240.117 102.434 239.974C102.938 239.831 103.465 239.821 103.974 239.943C104.482 240.065 104.959 240.318 105.368 240.68C105.777 241.043 106.107 241.506 106.332 242.035C108.579 246.96 113.234 257.29 113.234 258.509C113.234 260.122 113.472 262.531 110.851 260.659C108.23 258.787 102.757 250.454 101.328 248.035C100.289 246.317 99.1574 242.717 101.064 240.768Z" fill="white"/>
<mask id="mask6_423_215" style="mask-type:luminance" maskUnits="userSpaceOnUse" x="100" y="239" width="14" height="23">
<path d="M101.064 240.768C101.461 240.389 101.929 240.117 102.434 239.974C102.938 239.831 103.465 239.821 103.974 239.943C104.482 240.065 104.959 240.318 105.368 240.68C105.777 241.043 106.107 241.506 106.332 242.035C108.579 246.96 113.234 257.29 113.234 258.509C113.234 260.122 113.472 262.531 110.851 260.659C108.23 258.787 102.757 250.454 101.328 248.035C100.289 246.317 99.1574 242.717 101.064 240.768Z" fill="white"/>
</mask>
<g mask="url(#mask6_423_215)">
<path d="M109.353 249.12C109.353 249.12 107.217 245.28 104.834 246.566C102.451 247.853 108.979 258.739 110.102 260.294C111.225 261.85 112.613 261.571 112.996 260.438C113.379 259.306 113.115 257.894 112.494 255.206C111.872 252.518 109.353 249.12 109.353 249.12Z" fill="#213555"/>
<path opacity="0.5" d="M109.353 249.12C109.353 249.12 107.217 245.28 104.834 246.566C102.451 247.853 108.979 258.739 110.102 260.294C111.225 261.85 112.613 261.571 112.996 260.438C113.379 259.306 113.115 257.894 112.494 255.206C111.872 252.518 109.353 249.12 109.353 249.12Z" fill="white"/>
</g>
<path d="M101.064 240.768C101.461 240.389 101.929 240.117 102.434 239.974C102.938 239.831 103.465 239.821 103.974 239.943C104.482 240.065 104.959 240.318 105.368 240.68C105.777 241.043 106.107 241.506 106.332 242.035C108.579 246.96 113.234 257.29 113.234 258.509C113.234 260.122 113.472 262.531 110.851 260.659C108.23 258.787 102.757 250.454 101.328 248.035C100.289 246.317 99.1574 242.717 101.064 240.768Z" stroke="#213555" stroke-linecap="round" stroke-linejoin="round"/>
<path d="M97.9659 254.477C99.3514 257.326 100.958 260.031 102.766 262.56C104.902 265.248 112.528 263.904 112.528 263.904" stroke="#213555" stroke-linecap="round" stroke-linejoin="round"/>
<path d="M94.1617 259.853C94.1617 259.853 98.2042 266.832 100.349 268.176C102.494 269.52 108.204 266.563 108.204 266.563" stroke="#213555" stroke-linecap="round" stroke-linejoin="round"/>
<path d="M186.17 256.397C186.17 256.397 179.098 255.12 177.821 255.6C176.545 256.08 174.715 258.48 169.762 260.064C164.808 261.648 163.396 262.781 165.234 263.741C167.845 264.777 170.691 264.777 173.302 263.741C175.855 262.618 178.111 260.861 178.672 260.707C179.773 260.783 180.864 260.995 181.923 261.341C181.923 261.341 185.762 259.267 186.17 256.397Z" fill="white" stroke="#213555" stroke-linecap="round" stroke-linejoin="round"/>
<path d="M244.74 219.542C228.443 216.845 225.413 232.694 215.94 245.616C208.698 255.485 202.425 259.45 199.864 260.774C196.757 258.278 193.055 255.61 190.851 254.966C186.468 253.69 185.2 256.243 183.362 258.317C181.523 260.39 168.791 268.877 168.085 270.442C167.379 272.006 169.072 272.362 170.204 272.515C171.336 272.669 175.157 271.075 175.157 271.075C175.157 271.075 171.753 272.832 172.604 274.109C173.455 275.386 181.225 272.986 183.915 271.872C183.915 271.872 176.843 275.539 177.268 276.816C177.694 278.093 180.238 277.613 181.932 277.133C183.625 276.653 192.825 272.986 192.825 272.986C192.825 272.986 186.017 276.499 184.315 277.613C182.613 278.726 185.166 279.533 186.434 279.533C187.702 279.533 193.787 276.336 196.477 275.386C199.166 274.435 204.894 274.08 208.672 271.872C210.024 271.111 211.276 270.142 212.391 268.992C220.102 264.346 242.894 249.84 248.408 239.146C254.485 227.347 253.174 220.944 244.74 219.542Z" fill="white"/>
<mask id="mask7_423_215" style="mask-type:luminance" maskUnits="userSpaceOnUse" x="167" y="219" width="86" height="61">
<path d="M244.74 219.542C228.443 216.845 225.413 232.694 215.94 245.616C208.698 255.485 202.425 259.45 199.864 260.774C196.757 258.278 193.055 255.61 190.851 254.966C186.468 253.69 185.2 256.243 183.362 258.317C181.523 260.39 168.791 268.877 168.085 270.442C167.379 272.006 169.072 272.362 170.204 272.515C171.336 272.669 175.157 271.075 175.157 271.075C175.157 271.075 171.753 272.832 172.604 274.109C173.455 275.386 181.225 272.986 183.915 271.872C183.915 271.872 176.843 275.539 177.268 276.816C177.694 278.093 180.238 277.613 181.932 277.133C183.625 276.653 192.825 272.986 192.825 272.986C192.825 272.986 186.017 276.499 184.315 277.613C182.613 278.726 185.166 279.533 186.434 279.533C187.702 279.533 193.787 276.336 196.477 275.386C199.166 274.435 204.894 274.08 208.672 271.872C210.024 271.111 211.276 270.142 212.391 268.992C220.102 264.346 242.894 249.84 248.408 239.146C254.485 227.347 253.174 220.944 244.74 219.542Z" fill="white"/>
</mask>
<g mask="url(#mask7_423_215)">
<path d="M244.74 219.542C243.591 219.352 242.43 219.256 241.268 219.254C241.472 219.437 244.264 222.134 242.621 228C240.919 234.077 211.421 264.163 208.298 265.44C205.174 266.717 197.804 261.283 198.085 263.203C198.366 265.123 201.489 268.637 200.919 269.923C200.349 271.21 191.847 276 188.723 278.237C188.298 278.548 187.894 278.894 187.515 279.274C189.728 278.496 194.281 276.173 196.511 275.386C199.2 274.426 204.859 274.109 208.672 271.872C210.024 271.111 211.276 270.142 212.391 268.992C220.102 264.346 242.894 249.84 248.408 239.146C254.485 227.347 253.174 220.944 244.74 219.542Z" fill="#213555"/>
<path opacity="0.5" d="M244.74 219.542C243.591 219.352 242.43 219.256 241.268 219.254C241.472 219.437 244.264 222.134 242.621 228C240.919 234.077 211.421 264.163 208.298 265.44C205.174 266.717 197.804 261.283 198.085 263.203C198.366 265.123 201.489 268.637 200.919 269.923C200.349 271.21 191.847 276 188.723 278.237C188.298 278.548 187.894 278.894 187.515 279.274C189.728 278.496 194.281 276.173 196.511 275.386C199.2 274.426 204.859 274.109 208.672 271.872C210.024 271.111 211.276 270.142 212.391 268.992C220.102 264.346 242.894 249.84 248.408 239.146C254.485 227.347 253.174 220.944 244.74 219.542Z" fill="white"/>
</g>
<path d="M244.74 219.542C228.443 216.845 225.413 232.694 215.94 245.616C208.698 255.485 202.425 259.45 199.864 260.774C196.757 258.278 193.055 255.61 190.851 254.966C186.468 253.69 185.2 256.243 183.362 258.317C181.523 260.39 168.791 268.877 168.085 270.442C167.379 272.006 169.072 272.362 170.204 272.515C171.336 272.669 175.157 271.075 175.157 271.075C175.157 271.075 171.753 272.832 172.604 274.109C173.455 275.386 181.225 272.986 183.915 271.872C183.915 271.872 176.843 275.539 177.268 276.816C177.694 278.093 180.238 277.613 181.932 277.133C183.625 276.653 192.825 272.986 192.825 272.986C192.825 272.986 186.017 276.499 184.315 277.613C182.613 278.726 185.166 279.533 186.434 279.533C187.702 279.533 193.787 276.336 196.477 275.386C199.166 274.435 204.894 274.08 208.672 271.872C210.024 271.111 211.276 270.142 212.391 268.992C220.102 264.346 242.894 249.84 248.408 239.146C254.485 227.347 253.174 220.944 244.74 219.542Z" stroke="#213555" stroke-linecap="round" stroke-linejoin="round"/>
<path d="M175.157 271.075C175.157 271.075 188.17 262.934 190.289 259.91" stroke="#213555" stroke-linecap="round" stroke-linejoin="round"/>
<path d="M183.923 271.872C183.923 271.872 191.583 268.205 194.247 265.968" stroke="#213555" stroke-linecap="round" stroke-linejoin="round"/>
<path d="M192.834 272.986C192.834 272.986 197.787 271.066 199.2 269.798" stroke="#213555" stroke-linecap="round" stroke-linejoin="round"/>
<path d="M199.864 260.774L202.911 263.52" stroke="#213555" stroke-linecap="round" stroke-linejoin="round"/>
<path d="M152.043 174.528C152.043 174.528 151.523 179.021 139.404 186.25C127.285 193.478 118.46 191.712 117.277 190.742C116.094 189.773 112.255 177.456 115.2 163.987C118.145 150.518 130.919 144.48 142 144.48C153.081 144.48 158.97 153.658 161.047 160.877C163.123 168.096 159.83 187.834 159.83 187.834C159.83 187.834 153.081 185.856 152.043 174.528Z" fill="#213555" stroke="#213555" stroke-linecap="round" stroke-linejoin="round"/>
<path d="M151.489 175.766C151.489 175.766 148.894 189.437 124.894 194.803" stroke="#213555" stroke-linecap="round" stroke-linejoin="round"/>
<path d="M152.128 147.955C152.128 147.955 145.421 136.003 126.17 146.035" stroke="#213555" stroke-linecap="round" stroke-linejoin="round"/>
<path d="M153.438 149.424C154.758 149.215 156.104 149.423 157.325 150.024C158.546 150.626 159.596 151.598 160.357 152.832" stroke="#213555" stroke-linecap="round" stroke-linejoin="round"/>
<path d="M151.668 162.422C151.668 162.422 150.374 178.464 125.804 183.542" stroke="white" stroke-linecap="round" stroke-linejoin="round"/>
<path d="M119.991 174.048C119.14 173.981 118.289 173.875 117.438 173.722" stroke="white" stroke-linecap="round" stroke-linejoin="round"/>
<path d="M150.698 158.045C150.698 158.045 139.362 172.79 123.864 174.029" stroke="white" stroke-linecap="round" stroke-linejoin="round"/>
<path d="M226.919 102.797C227.013 102.979 229.106 101.126 229.2 101.309C229.421 101.731 220.536 110.064 220.749 110.486C221.234 111.446 238.077 98.0064 238.528 98.9088C239.064 99.9552 218.187 114.346 218.732 115.411C219.43 116.765 242.792 98.2944 243.353 99.3792C243.915 100.464 217.404 117.014 218.009 118.205C218.613 119.395 245.243 98.7936 245.872 100.061C246.502 101.328 216.936 118.963 217.617 120.374C218.298 121.786 247.021 99.4464 247.702 100.771C248.383 102.096 216.757 123.878 217.421 125.165C218.272 126.931 250.732 101.434 251.515 102.96C252.298 104.486 216.749 124.79 217.472 126.259C218.196 127.728 251.438 101.894 252.298 103.574C253.03 105.005 216.715 126.269 217.592 127.987C218.366 129.494 252.672 102.826 253.557 104.563C254.34 106.09 217.617 130.483 218.383 132C219.294 133.786 255.336 105.629 256.221 107.357C257.106 109.085 218.23 132.605 219.217 134.534C220.068 136.243 256.749 107.405 257.779 109.411C258.63 111.091 218.63 133.603 219.481 135.158C220.426 136.992 257.26 108.125 258.196 109.949C259.132 111.773 218.894 134.237 219.796 135.994C220.834 138.01 257.702 108.931 258.621 110.717C259.413 112.262 219.311 135.178 220.179 136.867C221.14 138.787 258.179 109.795 259.072 111.533C260.043 113.453 221.047 138.259 222.034 140.189C222.885 141.84 259.719 113.107 260.689 115.018C261.6 116.784 222.323 140.026 223.2 141.725C224.17 143.645 260.536 115.21 261.379 116.861C262.221 118.512 223.26 141.293 224.051 142.848C225.03 144.768 260.911 116.659 261.745 118.301C262.579 119.942 225.804 143.818 226.672 145.517C227.54 147.216 261.481 120.288 262.468 122.208C263.243 123.734 225.983 143.933 226.877 145.67C227.847 147.59 261.609 120.778 262.485 122.486C263.362 124.195 226.17 144.202 227.021 145.766C227.872 147.331 261.626 120.883 262.519 122.64C263.302 124.157 229.813 146.64 230.596 148.205C231.379 149.77 261.787 125.674 262.638 127.334C263.277 128.582 232.851 148.205 233.566 149.587C234.281 150.97 261.583 129.677 262.221 130.925C262.86 132.173 233.413 148.493 234.077 149.789C234.74 151.085 261.311 130.032 262.111 131.549C262.749 132.797 238.996 149.904 239.515 150.931C240.034 151.958 259.702 136.282 260.281 137.414C260.689 138.202 244.792 149.894 245.174 150.653C245.481 151.258 256.792 142.166 257.14 142.858C257.302 143.165 249.855 148.618 250.034 149.021C250.153 149.242 253.506 146.41 253.643 146.669C253.779 146.928 250.834 148.493 250.894 148.589C250.953 148.685 253.064 146.89 253.175 147.11" stroke="#213555" stroke-width="0.72" stroke-linecap="round" stroke-linejoin="round"/>
<path d="M236.485 135.149C237.116 135.009 237.714 134.721 238.24 134.304C238.766 133.887 239.209 133.351 239.541 132.73C240.038 131.832 240.295 130.792 240.281 129.734C240.305 128.768 240.08 127.814 239.634 126.989C239.177 126.207 238.499 125.622 237.711 125.328C238.194 125.076 238.626 124.713 238.979 124.262C239.518 123.473 239.792 122.493 239.753 121.498C239.782 120.469 239.513 119.458 238.987 118.618C238.136 117.312 236.706 116.65 234.672 116.611H226.63V135.379H234.128C234.919 135.395 235.709 135.318 236.485 135.149ZM229.949 119.894H233.575C234.239 119.875 234.902 119.972 235.541 120.182C235.834 120.327 236.079 120.574 236.239 120.886C236.4 121.199 236.468 121.561 236.434 121.92C236.462 122.239 236.414 122.56 236.294 122.851C236.175 123.141 235.988 123.39 235.753 123.571C235.214 123.901 234.605 124.06 233.992 124.032H229.949V119.894ZM229.949 132.144V127.142H234.043C234.623 127.117 235.202 127.225 235.745 127.459C236.084 127.628 236.368 127.912 236.558 128.272C236.747 128.631 236.832 129.049 236.8 129.466C236.849 129.934 236.771 130.409 236.577 130.827C236.382 131.245 236.08 131.587 235.711 131.808C235.173 132.062 234.591 132.177 234.009 132.144H229.949Z" fill="white"/>
<path d="M243.098 134.17C244.329 135.284 245.868 135.876 247.447 135.84C248.302 135.899 249.158 135.75 249.957 135.402C250.756 135.054 251.479 134.516 252.077 133.824C252.702 133.151 253.12 132.269 253.268 131.309H250C249.842 131.679 249.616 132.006 249.336 132.269C248.829 132.712 248.198 132.936 247.557 132.902C246.933 132.923 246.316 132.744 245.779 132.384C245.36 132.061 245.022 131.622 244.797 131.109C244.572 130.597 244.468 130.027 244.494 129.456H253.404C253.433 128.536 253.399 127.615 253.302 126.701C253.176 125.667 252.838 124.681 252.315 123.821C251.797 122.918 251.058 122.205 250.187 121.766C249.275 121.319 248.288 121.097 247.294 121.114C246.484 121.077 245.676 121.228 244.921 121.558C244.165 121.889 243.478 122.391 242.902 123.034C242.304 123.779 241.845 124.653 241.552 125.603C241.26 126.553 241.14 127.56 241.2 128.563C241.211 131.155 241.844 133.024 243.098 134.17ZM245.396 124.944C245.65 124.669 245.952 124.456 246.283 124.318C246.615 124.181 246.967 124.123 247.319 124.147C248.015 124.122 248.694 124.389 249.226 124.896C249.491 125.177 249.703 125.516 249.85 125.892C249.996 126.268 250.073 126.674 250.077 127.085H244.528C244.611 126.286 244.915 125.537 245.396 124.944Z" fill="white"/>
<path d="M250.723 117.715H243.489V119.606H250.723V117.715Z" fill="white"/>
<path d="M203.404 43.8048C203.506 43.9968 205.591 42.1344 205.685 42.3168C205.906 42.7488 196.613 51.744 196.86 52.224C197.294 53.0688 215.319 38.9664 215.796 39.8976C216.272 40.8288 195.957 52.3872 196.383 53.28C196.809 54.1728 216.289 39.0144 216.809 39.9936C217.328 40.9728 194.945 54.8448 195.421 55.7664C196.068 57.024 218.689 39.2064 219.251 40.2624C219.813 41.3184 193.481 60 194.119 61.2576C194.757 62.5152 223.285 40.1376 224.085 41.7408C224.715 42.96 193.243 61.488 193.974 62.928C194.706 64.368 224.655 40.848 225.464 42.4128C226.153 43.7568 193.243 64.9536 193.906 66.2496C194.647 67.6992 227.277 42.4704 228.06 44.0064C228.911 45.7536 193.166 65.8272 194.017 67.344C194.868 68.8608 227.983 42.816 228.911 44.6304C229.838 46.4448 193.37 67.152 194.111 68.5824C194.962 70.272 229.004 43.7472 229.855 45.3216C230.706 46.896 193.336 67.6032 194.187 69.2736C195.038 70.944 229.464 44.0832 230.315 45.744C231.251 47.5584 193.277 67.776 194.213 69.6096C195.149 71.4432 229.643 44.352 230.426 45.9552C231.209 47.5584 193.617 69.5712 194.468 71.2416C195.319 72.912 230.732 45.456 231.566 47.0784C232.519 48.9984 193.719 69.9744 194.545 71.5968C195.566 73.5936 230.987 45.6768 231.813 47.328C232.638 48.9792 194.238 72.288 195.064 73.872C196.026 75.792 232.23 47.136 233.2 49.0272C234.051 50.6592 195.379 75.3696 196.306 77.1744C197.345 79.2096 234.23 50.0832 235.149 51.8784C236.068 53.6736 197.157 78.7584 197.974 80.3328C198.885 82.1184 235.804 53.1744 236.774 55.0656C237.745 56.9568 197.234 78.7488 198.162 80.6112C199.191 82.6368 236.06 53.6736 236.919 55.3632C237.779 57.0528 198.392 80.544 199.183 82.08C200.102 83.8752 236.689 55.3728 237.566 57.12C238.443 58.8672 199.532 81.9936 200.443 83.7792C201.353 85.5648 237.311 57.4848 238.187 59.1936C239.157 61.1136 200.392 82.9536 201.328 84.768C202.264 86.5824 237.515 58.6656 238.485 60.5664C239.387 62.3232 203.285 85.584 204.187 87.3504C204.979 88.9056 238.281 63.1584 239.038 64.6464C239.796 66.1344 206.136 87.6864 206.894 89.1552C207.651 90.624 238.298 66.6336 239.098 68.1888C239.787 69.5328 206.902 88.1952 207.609 89.5584C208.315 90.9216 238.298 67.6128 239.047 69.0816C239.796 70.5504 209.37 89.3376 210.034 90.6336C210.826 92.1888 237.898 70.4736 238.672 71.9808C239.328 73.248 212.962 90.5376 213.523 91.6416C214.085 92.7456 237.047 74.6112 237.702 75.8976C238.179 76.8576 214.655 90.7584 215.243 91.9008C215.83 93.0432 236.519 76.5408 237.072 77.6832C237.489 78.4896 220.119 90.9216 220.57 91.8048C220.945 92.5344 234.043 82.1184 234.392 82.8C234.562 83.1264 227.055 89.3568 227.226 89.6928C227.396 90.0288 229.6 87.8976 229.694 88.08C229.787 88.2624 227.294 89.5296 227.345 89.6352C227.396 89.7408 229.515 87.9264 229.626 88.1472" stroke="#213555" stroke-width="0.72" stroke-linecap="round" stroke-linejoin="round"/>
<path d="M212.749 82.1568H218.511V65.8368H222.545L222.979 60.3648H218.511V57.2448C218.511 55.9584 218.741 55.4496 219.847 55.4496H222.979V49.7664H218.97C214.672 49.7664 212.732 51.9072 212.732 56.0064V60.3648H209.719V65.904H212.732L212.749 82.1568Z" fill="white"/>
<path d="M139.515 15.84C139.609 16.0224 141.694 14.1408 141.796 14.352C141.898 14.5632 134.477 21.0048 134.655 21.3408C135.038 22.1088 148.375 11.4432 148.749 12.1632C149.192 13.0368 131.915 24.9504 132.323 25.7376C132.834 26.6976 152.749 10.9056 153.345 12.048C153.94 13.1904 130 29.8752 130.63 31.1136C131.353 32.5248 157.66 11.7696 158.323 13.0848C158.987 14.4 129.311 34.5792 130 36C130.689 37.4208 161.583 13.5264 162.341 14.9568C163.192 16.5792 129.319 35.1168 130 36.48C130.851 38.1888 161.847 13.44 162.723 15.168C163.421 16.5216 129.2 36.0768 129.966 37.5648C130.817 39.2832 162.672 13.8816 163.592 15.6672C164.366 17.1936 129.506 39.8784 130.23 41.2992C131.081 42.96 165.532 16.272 166.315 17.7984C167.098 19.3248 130.272 43.9296 131.089 45.5232C131.992 47.2704 168.136 18.9408 169.081 20.784C169.872 22.3296 130.74 45.3696 131.634 47.1744C132.689 49.2288 169.226 20.4672 170.085 22.1376C170.945 23.808 130.936 46.032 131.923 47.952C132.911 49.872 169.583 20.8416 170.57 22.7808C171.379 24.3552 131.268 46.8672 132.213 48.7008C133.064 50.3712 170.111 21.7632 170.979 23.4528C171.847 25.1424 131.923 48.4128 132.8 50.0832C133.804 52.0032 170.792 23.0016 171.694 24.7488C172.596 26.496 132.094 48.6816 133.013 50.4768C134.043 52.4832 170.962 23.2896 171.906 25.152C172.851 27.0144 134.255 52.2144 135.055 53.8464C135.855 55.4784 172.681 27.1104 173.532 28.7808C174.519 30.7008 134.919 53.0496 135.881 54.9312C136.732 56.6592 173.072 28.2336 174.026 30.0864C174.826 31.6512 136.647 55.104 137.6 56.9664C138.553 58.8288 173.651 30.8928 174.655 32.8416C175.506 34.5216 137.6 56.1408 138.468 57.8016C139.336 59.4624 174.017 32.304 174.928 34.0608C175.838 35.8176 138.962 57.3408 139.804 59.0208C140.647 60.7008 174.255 34.3104 175.106 36C175.787 37.3344 142.434 59.8656 143.141 61.2576C143.847 62.6496 174.315 38.6496 175.2 40.3776C175.975 41.8944 143.353 60.3072 144.119 61.8048C144.885 63.3024 174.409 40.224 175.123 41.6448C175.838 43.0656 146.4 61.6992 147.089 63.0528C147.779 64.4064 173.83 43.6992 174.579 45.1584C175.192 46.3488 146.834 61.92 147.489 63.1968C148.145 64.4736 173.872 44.448 174.494 45.6096C175.115 46.7712 147.872 62.1984 148.519 63.4176C149.166 64.6368 173.541 45.4464 174.187 46.704C174.689 47.664 149.455 62.6112 150.043 63.7728C150.63 64.9344 173.021 47.088 173.668 48.4128C174.17 49.3728 155.345 63.0144 155.796 63.936C156.247 64.8576 170.57 53.28 170.97 54.048C171.192 54.48 162.102 61.8048 162.315 62.2176C162.528 62.6304 166.213 59.2896 166.358 59.5776C166.502 59.8656 162.477 61.9104 162.57 62.0928C162.664 62.2752 166.077 59.4432 166.221 59.712C166.366 59.9808 163.396 61.5552 163.447 61.632C163.498 61.7088 165.626 59.9424 165.728 60.144" stroke="#213555" stroke-width="0.72" stroke-linecap="round" stroke-linejoin="round"/>
<path d="M139.966 47.0016C142.34 48.7212 145.102 49.6343 147.923 49.632C157.574 49.632 163.021 40.4448 162.689 32.208C163.693 31.375 164.557 30.3479 165.243 29.1744C164.294 29.6577 163.287 29.9811 162.255 30.1344C163.341 29.4 164.154 28.2475 164.545 26.8896C163.524 27.5734 162.407 28.0541 161.243 28.3104C160.459 27.3717 159.423 26.7505 158.295 26.5427C157.167 26.3349 156.009 26.5522 155.002 27.1609C153.994 27.7697 153.192 28.7359 152.721 29.9103C152.249 31.0846 152.133 32.4016 152.391 33.6576C150.325 33.5429 148.304 32.9381 146.459 31.8827C144.615 30.8274 142.988 29.3452 141.685 27.5328C141.021 28.8231 140.817 30.3505 141.116 31.8041C141.415 33.2576 142.194 34.5281 143.294 35.3568C142.468 35.3266 141.66 35.0766 140.936 34.6272C140.922 35.9929 141.331 37.3213 142.092 38.3833C142.854 39.4453 143.92 40.1744 145.106 40.4448C144.34 40.6796 143.537 40.7125 142.757 40.5408C143.089 41.705 143.735 42.7232 144.605 43.453C145.474 44.1828 146.525 44.5878 147.608 44.6112C145.44 46.5145 142.693 47.3737 139.966 47.0016Z" fill="white"/>
<path d="M76.0766 43.8048C76.1702 43.9776 78.2468 42.1056 78.3575 42.3168C78.6128 42.816 69.217 51.8592 69.4723 52.368C69.9404 53.28 88.0936 38.928 88.6043 39.888C89.1149 40.848 68.3149 53.2128 68.7234 54.0288C69.2255 54.9888 89.6085 38.832 90.2213 40.032C90.7489 41.0496 67.7957 54.096 68.2979 55.0656C68.8 56.0352 90.6213 38.8512 91.2766 40.1088C91.8298 41.1936 66.3404 59.424 66.9192 60.5472C67.6 61.8816 95.4298 40.08 96.1617 41.5008C96.8936 42.9216 65.7362 63.5808 66.5192 65.0784C67.3021 66.576 98.9958 41.7216 99.8468 43.3824C100.698 45.0432 65.983 67.8528 66.8085 69.4656C67.7702 71.3856 102.102 44.0256 103.047 45.8592C103.991 47.6928 65.983 68.16 66.8851 69.9168C67.7872 71.6736 102.519 44.5536 103.353 46.1664C104.094 47.616 66 68.2464 66.9277 70.0992C67.8553 71.952 102.477 44.3424 103.523 46.3008C104.298 47.808 66.7915 71.7792 67.7787 73.6512C68.766 75.5232 104.851 46.9056 105.855 48.8544C106.706 50.5248 67.2851 73.056 68.2638 74.9856C69.2426 76.9152 105.711 48.048 106.698 49.9584C107.549 51.5904 68.1192 75.2736 69.0723 77.1456C69.9234 78.768 106.911 49.8912 107.915 51.8496C108.766 53.4528 68.7149 76.5024 69.617 78.2592C70.5192 80.016 107.515 50.9856 108.511 52.9248C109.362 54.5376 69.0128 77.0592 69.8043 78.6048C70.8255 80.6016 107.83 51.5712 108.698 53.2704C109.566 54.9696 70.9617 80.304 71.7447 81.84C72.5957 83.52 109.251 54.96 110.204 56.7936C111.055 58.464 72.1787 81.8688 73.0213 83.52C73.983 85.392 109.864 56.8896 110.877 58.8672C111.728 60.5376 72.2894 82.0416 73.0894 83.6064C73.8894 85.1712 109.949 57.12 110.902 58.9728C111.855 60.8256 73.4553 83.2128 74.4 85.056C75.1915 86.6016 110.4 59.136 111.336 60.9984C112.272 62.8608 74.2809 84.0384 75.2 85.8432C75.9745 87.3696 110.638 60.2784 111.591 62.1408C112.357 63.648 74.4511 84.2208 75.3702 86.016C76.1532 87.5424 110.638 60.4512 111.634 62.4C112.409 63.9264 76.3489 85.9392 77.1234 87.456C78.0596 89.28 110.936 63.1488 111.804 64.8576C112.502 66.2208 77.5234 86.8608 78.2808 88.3296C79.1915 90.1152 111.098 64.8192 111.915 66.4224C112.732 68.0256 81.6 89.0976 82.2638 90.4224C82.9277 91.7472 110.74 69.84 111.523 71.376C112.187 72.6624 82.9021 89.6832 83.5319 90.9216C84.3064 92.4192 110.494 71.3952 111.251 72.8736C111.898 74.1312 85.7192 90.4128 86.3319 91.6416C86.9447 92.8704 109.804 74.7552 110.417 75.9552C110.936 76.9152 90.3489 91.104 90.8426 92.016C91.3362 92.928 108.043 79.536 108.536 80.496C108.919 81.264 92.5106 91.056 92.9021 91.8336C93.2936 92.6112 107.03 81.6672 107.37 82.3968C107.583 82.8096 99.9149 89.28 100.085 89.6256C100.255 89.9712 102.264 87.9264 102.366 88.1376" stroke="#213555" stroke-width="0.72" stroke-linecap="round" stroke-linejoin="round"/>
<path d="M82.6638 59.3472H77.7447V77.2704H82.6638V59.3472Z" fill="white"/>
<path d="M80.1788 57.0048C80.7609 57.0124 81.3319 56.8247 81.8192 56.4654C82.3065 56.1061 82.6881 55.5916 82.9156 54.9871C83.143 54.3826 83.2061 53.7155 83.0966 53.0705C82.9872 52.4256 82.7103 51.8318 82.3011 51.3648C81.8918 50.8977 81.3687 50.5785 80.7982 50.4475C80.2278 50.3166 79.6357 50.3799 79.0972 50.6294C78.5587 50.8789 78.0981 51.3034 77.7739 51.8488C77.4498 52.3943 77.2767 53.0361 77.2766 53.6928C77.2743 54.5653 77.5783 55.4035 78.1221 56.024C78.6658 56.6446 79.4052 56.9972 80.1788 57.0048Z" fill="white"/>
<path d="M90.5277 67.8624C90.5277 65.3376 91.549 63.84 93.5234 63.84C95.3277 63.84 96.1958 65.28 96.1958 67.8624V77.28H101.064V65.9232C101.064 61.1232 98.6554 58.8 95.2851 58.8C94.3292 58.7838 93.3859 59.0477 92.5475 59.566C91.7091 60.0843 91.0044 60.8392 90.5022 61.7568V59.3472H85.7787V77.28H90.5022L90.5277 67.8624Z" fill="white"/>
<path d="M42.0596 102.797C42.1617 103.008 44.2468 101.126 44.3404 101.309C44.4341 101.491 38.9192 105.523 39.0638 105.811C39.3192 106.31 48.1277 99.1968 48.4255 99.7344C48.7234 100.272 35.6596 109.632 36.034 110.294C36.4085 110.957 52.9702 97.968 53.4724 98.9376C53.9745 99.9072 33.566 113.731 34.0936 114.778C34.7319 116.016 57.3021 98.0352 57.9234 99.2544C58.4596 100.291 33.3277 114.614 33.8383 115.574C34.5106 116.89 58.0596 98.1984 58.6809 99.3984C59.3021 100.598 32.8511 115.334 33.5064 116.64C34.1617 117.946 58.8936 98.3328 59.5745 99.6576C60.2553 100.982 31.966 120.374 32.6468 121.738C33.4979 123.398 63.2 99.936 63.9319 101.357C64.6638 102.778 31.8723 121.997 32.5447 123.36C33.3277 124.877 64.3745 100.406 65.2255 102.077C65.9575 103.507 31.9489 125.05 32.6383 126.394C33.3277 127.738 66.7234 102.077 67.5319 103.67C68.4511 105.466 32.2128 128.246 33.0723 129.917C34.0681 131.837 69.0638 104.054 70 105.917C70.8 107.491 32.8255 130.973 33.634 132.557C34.4426 134.141 70.8255 106.08 71.6511 107.712C72.4766 109.344 33.4298 132.672 34.3234 134.381C35.217 136.09 71.8894 107.414 72.8511 109.286C73.8128 111.158 34.3319 134.986 35.1319 136.541C36.1958 138.614 73.1575 109.517 74.017 111.206C74.8766 112.896 35.0128 136.224 35.8298 137.827C36.817 139.747 73.8553 110.794 74.7319 112.493C75.6085 114.192 36.5958 138.883 37.4809 140.64C38.5277 142.694 75.1745 113.914 76.0085 115.555C76.9872 117.475 38.1958 140.966 39.1575 142.848C40.0085 144.538 75.8468 116.294 76.8681 118.291C77.7192 119.904 40.1362 143.194 40.8936 144.662C41.8043 146.429 76.5277 119.107 77.4298 120.874C78.2809 122.496 40.4681 143.443 41.2936 145.066C42.1192 146.688 76.6383 119.674 77.5404 121.44C78.3064 122.947 41.8979 144.547 42.7915 146.275C43.5745 147.811 76.9362 122.083 77.6851 123.542C78.4341 125.002 44.6468 146.458 45.4809 148.09C46.3149 149.722 77.0468 125.712 77.7447 127.085C78.4426 128.458 48.4851 148.406 49.2085 149.818C49.9319 151.229 76.4426 130.08 77.2 131.578C77.8553 132.874 52.1277 149.51 52.766 150.778C53.4043 152.045 75.6085 134.515 76.1362 135.552C76.6638 136.589 53.3872 149.952 53.8809 150.912C54.3745 151.872 75.1575 135.552 75.7107 136.694C76.0596 137.376 61.6426 149.434 62.0341 150.202C62.3234 150.758 70.9447 143.741 71.2 144.23C71.3107 144.461 65.8553 148.406 65.983 148.646C66.1106 148.886 68.1617 146.957 68.2638 147.168" stroke="#213555" stroke-width="0.72" stroke-linecap="round" stroke-linejoin="round"/>
<path d="M55.166 112.906C58.6468 112.906 59.0553 112.906 60.434 112.992C61.2585 113.008 62.0751 113.177 62.8511 113.491C63.4165 113.73 63.9281 114.107 64.3489 114.595C64.7822 115.068 65.114 115.646 65.3191 116.285C65.6065 117.158 65.759 118.08 65.7702 119.011C65.8383 120.566 65.8468 121.027 65.8468 124.954C65.8468 128.88 65.8468 129.341 65.7702 130.886C65.7597 131.821 65.6071 132.746 65.3191 133.622C65.114 134.262 64.7822 134.839 64.3489 135.312C63.9253 135.794 63.4144 136.168 62.8511 136.406C62.0771 136.731 61.2596 136.903 60.434 136.915C59.0553 136.982 58.6468 137.002 55.166 137.002C51.6851 137.002 51.2766 137.002 49.8979 136.915C49.0723 136.903 48.2548 136.731 47.4808 136.406C46.9175 136.168 46.4066 135.794 45.983 135.312C45.5527 134.837 45.2213 134.26 45.0128 133.622C44.7248 132.746 44.5722 131.821 44.5617 130.886C44.5021 129.341 44.4851 128.88 44.4851 124.954C44.4851 121.027 44.4851 120.566 44.5617 119.011C44.5729 118.08 44.7254 117.158 45.0128 116.285C45.2286 115.651 45.5596 115.075 45.9847 114.593C46.4098 114.112 46.9194 113.737 47.4808 113.491C48.2568 113.177 49.0734 113.008 49.8979 112.992C51.2766 112.915 51.6851 112.906 55.166 112.906ZM55.166 110.256C51.6255 110.256 51.183 110.256 49.7957 110.342C48.7146 110.374 47.6452 110.604 46.6298 111.024C45.7612 111.396 44.9744 111.976 44.3234 112.723C43.6612 113.456 43.1498 114.344 42.8255 115.325C42.4449 116.468 42.2377 117.675 42.2128 118.896C42.1532 120.461 42.1362 120.96 42.1362 124.954C42.1362 128.947 42.1362 129.446 42.2128 131.011C42.2387 132.232 42.4458 133.439 42.8255 134.582C43.1576 135.558 43.6679 136.445 44.3233 137.184C44.9787 137.923 45.7645 138.499 46.6298 138.874C47.6434 139.302 48.7136 139.536 49.7957 139.565C51.183 139.632 51.6255 139.651 55.166 139.651C58.7064 139.651 59.1489 139.651 60.5362 139.565C61.6183 139.536 62.6885 139.302 63.7021 138.874C64.5703 138.505 65.3572 137.929 66.0085 137.184C66.6686 136.447 67.1821 135.56 67.5149 134.582C67.8872 133.437 68.0913 132.231 68.1191 131.011C68.1787 129.446 68.1957 128.947 68.1957 124.954C68.1957 120.96 68.1957 120.461 68.1191 118.896C68.0922 117.676 67.8881 116.47 67.5149 115.325C67.1778 114.349 66.6649 113.463 66.0086 112.723C65.3523 111.983 64.5669 111.404 63.7021 111.024C62.6867 110.604 61.6173 110.374 60.5362 110.342C59.1489 110.275 58.7064 110.256 55.166 110.256Z" fill="white"/>
<path d="M55.166 117.408C53.843 117.408 52.5496 117.851 51.4496 118.68C50.3495 119.509 49.4921 120.687 48.9858 122.066C48.4795 123.445 48.347 124.962 48.6052 126.426C48.8633 127.889 49.5004 129.234 50.4359 130.289C51.3714 131.344 52.5634 132.063 53.861 132.354C55.1586 132.645 56.5036 132.496 57.7259 131.925C58.9482 131.354 59.993 130.387 60.728 129.146C61.463 127.905 61.8553 126.446 61.8553 124.954C61.8553 123.963 61.6823 122.982 61.3462 122.066C61.01 121.151 60.5172 120.319 59.8961 119.618C59.2749 118.917 58.5375 118.362 57.7259 117.982C56.9143 117.603 56.0445 117.408 55.166 117.408ZM55.166 129.888C54.3075 129.888 53.4684 129.601 52.7546 129.063C52.0408 128.525 51.4845 127.76 51.156 126.866C50.8274 125.971 50.7415 124.987 50.909 124.037C51.0764 123.087 51.4898 122.215 52.0969 121.53C52.7039 120.845 53.4773 120.379 54.3192 120.19C55.1612 120.001 56.0339 120.098 56.827 120.469C57.6201 120.839 58.298 121.467 58.7749 122.272C59.2519 123.077 59.5064 124.024 59.5064 124.992C59.5064 126.291 59.0491 127.536 58.2351 128.454C57.4211 129.372 56.3172 129.888 55.166 129.888Z" fill="white"/>
<path d="M63.6851 117.11C63.6851 117.46 63.5933 117.801 63.4212 118.092C63.2492 118.382 63.0046 118.609 62.7185 118.742C62.4323 118.876 62.1174 118.911 61.8137 118.843C61.5099 118.775 61.2309 118.606 61.0119 118.359C60.7929 118.112 60.6437 117.798 60.5833 117.455C60.5229 117.112 60.5539 116.757 60.6724 116.434C60.7909 116.112 60.9917 115.836 61.2492 115.642C61.5067 115.448 61.8095 115.344 62.1192 115.344C62.3252 115.343 62.5293 115.388 62.7198 115.476C62.9103 115.564 63.0834 115.694 63.229 115.859C63.3746 116.023 63.4899 116.218 63.5682 116.433C63.6465 116.648 63.6863 116.878 63.6851 117.11Z" fill="white"/>
</svg>
